<?xml version="1.0" encoding="UTF-8" standalone="no"?>
<!-- Created with Inkscape (http://www.inkscape.org/) -->

<svg
   width="146.02939mm"
   height="43.376225mm"
   viewBox="0 0 146.02939 43.376225"
   version="1.1"
   id="svg1"
   xmlns="http://www.w3.org/2000/svg"
   xmlns:svg="http://www.w3.org/2000/svg">
  <defs
     id="defs1" />
  <g
     id="layer1"
     transform="translate(-12.651174,-79.869255)">
    <rect
       style="fill:#ffff00;stroke:none;stroke-width:0.825644;stroke-linejoin:round"
       id="rect7"
       width="94.42527"
       height="36.340405"
       x="16.717251"
       y="82.839012" />
    <path
       id="rect6"
       style="fill:#0000ff;stroke:#000000;stroke-linejoin:round"
       d="m 18.151385,80.369255 c -2.769997,0 -5.000211,2.229697 -5.000211,4.999694 v 32.376321 c 0,2.76999 2.230214,5.00021 5.000211,5.00021 H 153.18087 c 2.77,0 4.9997,-2.23022 4.9997,-5.00021 V 85.368949 c 0,-2.769997 -2.2297,-4.999694 -4.9997,-4.999694 z m 13.418303,10.88409 3.150195,6.345866 7.014042,1.003039 -5.062223,4.9568 1.213879,6.98046 -6.279203,-3.28249 -6.2637,3.31142 1.18184,-6.98562 -5.084961,-4.934061 7.008874,-1.035079 z m 26.458333,0 3.150195,6.345866 7.014042,1.003039 -5.062223,4.9568 1.21388,6.98046 -6.279204,-3.28249 -6.2637,3.31142 1.18184,-6.98562 -5.084961,-4.934061 7.008874,-1.035079 z m 26.458333,0 3.150196,6.345866 7.014042,1.003039 -5.062224,4.9568 1.21388,6.98046 -6.279203,-3.28249 -6.263701,3.31142 1.18184,-6.98562 -5.084961,-4.934061 7.008875,-1.035079 z m 26.458336,0 3.1502,6.345866 7.01404,1.003039 -5.06222,4.9568 1.21388,6.98046 -6.27921,-3.28249 -6.2637,3.31142 1.18184,-6.98562 -5.08496,-4.934061 7.00888,-1.035079 z m 26.45833,0 3.1502,6.345866 7.01404,1.003039 -5.06222,4.9568 1.21388,6.98046 -6.2792,-3.28249 -6.26371,3.31142 1.18184,-6.98562 -5.08496,-4.934061 7.00888,-1.035079 z" />
    <rect
       style="fill:#ffff00;stroke:none;stroke-width:0.825644;stroke-linejoin:round"
       id="rect8"
       width="94.42527"
       height="36.340405"
       x="16.717251"
       y="82.839012" />
    <path
       id="path8"
       style="fill:#0000ff;stroke:#000000;stroke-linejoin:round"
       d="m 18.151385,80.369255 c -2.769997,0 -5.000211,2.229697 -5.000211,4.999694 v 32.376321 c 0,2.76999 2.230214,5.00021 5.000211,5.00021 H 153.18087 c 2.77,0 4.9997,-2.23022 4.9997,-5.00021 V 85.368949 c 0,-2.769997 -2.2297,-4.999694 -4.9997,-4.999694 z m 13.418303,10.88409 3.150195,6.345866 7.014042,1.003039 -5.062223,4.9568 1.213879,6.98046 -6.279203,-3.28249 -6.2637,3.31142 1.18184,-6.98562 -5.084961,-4.934061 7.008874,-1.035079 z m 26.458333,0 3.150195,6.345866 7.014042,1.003039 -5.062223,4.9568 1.21388,6.98046 -6.279204,-3.28249 -6.2637,3.31142 1.18184,-6.98562 -5.084961,-4.934061 7.008874,-1.035079 z m 26.458333,0 3.150196,6.345866 7.014042,1.003039 -5.062224,4.9568 1.21388,6.98046 -6.279203,-3.28249 -6.263701,3.31142 1.18184,-6.98562 -5.084961,-4.934061 7.008875,-1.035079 z m 26.458336,0 3.1502,6.345866 7.01404,1.003039 -5.06222,4.9568 1.21388,6.98046 -6.27921,-3.28249 -6.2637,3.31142 1.18184,-6.98562 -5.08496,-4.934061 7.00888,-1.035079 z m 26.45833,0 3.1502,6.345866 7.01404,1.003039 -5.06222,4.9568 1.21388,6.98046 -6.2792,-3.28249 -6.26371,3.31142 1.18184,-6.98562 -5.08496,-4.934061 7.00888,-1.035079 z" />
  </g>
</svg>
