<?xml version="1.0" encoding="UTF-8" standalone="no"?>
<!-- Created with Inkscape (http://www.inkscape.org/) -->

<svg
   width="125.58179mm"
   height="147.95755mm"
   viewBox="0 0 125.58179 147.95755"
   version="1.1"
   id="svg1"
   xmlns="http://www.w3.org/2000/svg"
   xmlns:svg="http://www.w3.org/2000/svg">
  <defs
     id="defs1" />
  <g
     id="layer1"
     transform="translate(-36.574408,-33.560307)">
    <rect
       style="fill:#ffffff;stroke:none;stroke-width:1;stroke-linejoin:round"
       id="rect23"
       width="125.66789"
       height="147.95203"
       x="36.209095"
       y="33.560307" />
    <path
       id="rect1"
       style="fill:#ffffff;stroke:#000000;stroke-linejoin:round"
       d="M 99.365313,98.269371 H 89.136529 V 139.1845 H 78.907745 V 128.95572 M 109.5941,98.269371 H 99.365313 V 139.1845 H 89.136529 M 119.82288,108.49815 V 98.269371 H 109.5941 V 139.1845 H 99.365313 M 119.82288,118.72694 V 108.49815 H 78.907745 V 98.269371 H 89.136529 M 119.82288,128.95572 V 118.72694 H 78.907745 V 108.49815 M 109.5941,139.1845 h 10.22878 V 128.95572 H 78.907745 v -10.22878" />
    <rect
       style="fill:#000080;stroke-width:1;stroke-linejoin:round"
       id="rect2"
       width="40.915131"
       height="40.915131"
       x="36.574409"
       y="98.269371" />
    <rect
       style="fill:#000080;stroke-width:1;stroke-linejoin:round"
       id="rect3"
       width="40.915131"
       height="40.915131"
       x="121.24107"
       y="98.269371" />
    <rect
       style="fill:#008000;stroke-width:1;stroke-linejoin:round"
       id="rect4"
       width="40.915131"
       height="40.915131"
       x="78.907761"
       y="140.60272" />
    <rect
       style="fill:#008000;stroke-width:1;stroke-linejoin:round"
       id="rect5"
       width="40.915131"
       height="40.915131"
       x="78.907761"
       y="55.936058" />
    <path
       id="rect6"
       style="fill:#ffffff;stroke:#000000;stroke-linejoin:round"
       d="m 104.47972,39.174678 -5.114395,-5.114392 -5.114391,5.114392 15.343176,15.343174 h 10.22878 l -5.11439,-5.114391 -5.11439,5.114391 H 99.365325 L 89.136543,44.289069 94.250934,39.174678 m 15.343176,5.114391 -5.11439,-5.114391 -15.343177,15.343174 H 78.907761 l 5.114391,-5.114391 m 30.686348,0 -5.11439,-5.114392 -10.228785,10.228783 H 89.136543 l -5.114391,-5.114391 5.114391,-5.114392" />
    <circle
       style="fill:#ffffff;stroke:#000000;stroke-width:1;stroke-linejoin:round"
       id="path6"
       cx="84.204796"
       cy="103.56641"
       r="3.4704797" />
    <circle
       style="fill:#ffffff;stroke:#000000;stroke-width:0.390451;stroke-linejoin:round"
       id="path6-1"
       cx="83.960609"
       cy="52.383865"
       r="1.3550514" />
    <circle
       style="fill:#000000;stroke:#000000;stroke-width:1;stroke-linejoin:round"
       id="path7"
       cx="104.43404"
       cy="123.97832"
       r="3.6988006" />
    <path
       style="fill:#000000;stroke:#000000;stroke-width:1;stroke-linejoin:round"
       id="path8"
       d="m 96.043726,112.28065 -3.071405,0 -3.071406,0 1.535703,-2.65991 1.535703,-2.65992 1.535703,2.65992 z"
       transform="translate(1.2785978,3.8357934)" />
    <path
       style="fill:#000000;stroke:#000000;stroke-width:1;stroke-linejoin:round"
       id="path8-7"
       d="m 96.043726,112.28065 -3.071405,0 -3.071406,0 1.535703,-2.65991 1.535703,-2.65992 1.535703,2.65992 z"
       transform="matrix(0.53083824,0,0,0.53083824,49.894625,-9.3182727)" />
    <circle
       style="fill:#ffffff;stroke:#000000;stroke-width:0.390451;stroke-linejoin:round"
       id="circle8"
       cx="94.189392"
       cy="44.255638"
       r="1.3550514" />
    <circle
       style="fill:#000000;stroke:#000000;stroke-width:0.390451;stroke-linejoin:round"
       id="circle9"
       cx="109.62389"
       cy="49.552685"
       r="1.3550514" />
    <text
       xml:space="preserve"
       style="font-size:6.94516px;font-family:Sans;-inkscape-font-specification:'Sans, Normal';fill:#ffffff;stroke:none;stroke-width:0.703109;stroke-linejoin:round"
       x="43.211113"
       y="111.85123"
       id="text9"><tspan
         id="tspan9"
         style="fill:#ffffff;stroke:none;stroke-width:0.703109"
         x="43.211113"
         y="111.85123">Kunden-</tspan><tspan
         style="fill:#ffffff;stroke:none;stroke-width:0.703109"
         x="43.211113"
         y="120.53268"
         id="tspan10">anforde</tspan><tspan
         style="fill:#ffffff;stroke:none;stroke-width:0.703109"
         x="43.211113"
         y="129.21413"
         id="tspan13">rungen</tspan></text>
    <text
       xml:space="preserve"
       style="font-size:6.8321px;font-family:Sans;-inkscape-font-specification:'Sans, Normal';fill:#ffffff;stroke:none;stroke-width:0.691664;stroke-linejoin:round"
       x="82.322662"
       y="69.629845"
       id="text16"><tspan
         id="tspan14"
         style="fill:#ffffff;stroke:none;stroke-width:0.691664"
         x="82.322662"
         y="69.629845">technische</tspan><tspan
         style="fill:#ffffff;stroke:none;stroke-width:0.691664"
         x="82.322662"
         y="78.169968"
         id="tspan15">Anforde-</tspan><tspan
         style="fill:#ffffff;stroke:none;stroke-width:0.691664"
         x="82.322662"
         y="86.710098"
         id="tspan16">rungen</tspan></text>
    <text
       xml:space="preserve"
       style="font-size:6.94516px;font-family:Sans;-inkscape-font-specification:'Sans, Normal';fill:#ffffff;stroke:none;stroke-width:0.703109;stroke-linejoin:round"
       x="125.79075"
       y="116.19196"
       id="text19"><tspan
         id="tspan17"
         style="fill:#ffffff;stroke:none;stroke-width:0.703109"
         x="125.79075"
         y="116.19196">Qualitäts-</tspan><tspan
         style="fill:#ffffff;stroke:none;stroke-width:0.703109"
         x="125.79075"
         y="124.87341"
         id="tspan19">plan</tspan></text>
    <text
       xml:space="preserve"
       style="font-size:6.8321px;font-family:Sans;-inkscape-font-specification:'Sans, Normal';fill:#ffffff;stroke:none;stroke-width:0.691664;stroke-linejoin:round"
       x="81.185112"
       y="158.56657"
       id="text22"><tspan
         id="tspan20"
         style="fill:#ffffff;stroke:none;stroke-width:0.691664"
         x="81.185112"
         y="158.56657">technische</tspan><tspan
         style="fill:#ffffff;stroke:none;stroke-width:0.691664"
         x="81.185112"
         y="167.1067"
         id="tspan22">Umsetzung</tspan></text>
    <text
       xml:space="preserve"
       style="font-size:18.505px;font-family:Sans;-inkscape-font-specification:'Sans, Normal';fill:#000000;stroke:none;stroke-width:1.8734;stroke-linejoin:round"
       x="36.366924"
       y="81.409744"
       id="text23"><tspan
         id="tspan23"
         style="stroke-width:1.8734"
         x="36.366924"
         y="81.409744">HoQ</tspan></text>
  </g>
</svg>
