<?xml version="1.0" encoding="UTF-8" standalone="no"?>
<!-- Created with Inkscape (http://www.inkscape.org/) -->

<svg
   width="249.31979mm"
   height="197.14609mm"
   viewBox="0 0 249.31979 197.14609"
   version="1.1"
   id="svg1"
   inkscape:export-filename="Kunde.svg"
   inkscape:export-xdpi="96"
   inkscape:export-ydpi="96"
   sodipodi:docname="Kunden.svg"
   xmlns:inkscape="http://www.inkscape.org/namespaces/inkscape"
   xmlns:sodipodi="http://sodipodi.sourceforge.net/DTD/sodipodi-0.dtd"
   xmlns="http://www.w3.org/2000/svg"
   xmlns:svg="http://www.w3.org/2000/svg">
  <sodipodi:namedview
     id="namedview1"
     pagecolor="#ffffff"
     bordercolor="#000000"
     borderopacity="0.25"
     inkscape:showpageshadow="2"
     inkscape:pageopacity="0.0"
     inkscape:pagecheckerboard="0"
     inkscape:deskcolor="#d1d1d1"
     inkscape:document-units="mm" />
  <defs
     id="defs1" />
  <g
     inkscape:label="Ebene 1"
     inkscape:groupmode="layer"
     id="layer1"
     transform="translate(-2.4440266,53.543526)">
    <g
       id="g1"
       style="fill:#008000"
       transform="translate(-21.166674)">
      <circle
         style="fill:#008000;stroke:#ffffff;stroke-width:1;stroke-dasharray:none"
         id="circle3"
         cx="86.896217"
         cy="66.140572"
         r="11.142066" />
      <rect
         style="fill:#008000;stroke:#ffffff;stroke-width:1;stroke-dasharray:none"
         id="rect3"
         width="31.051659"
         height="50.242641"
         x="71.73571"
         y="78.378571"
         rx="5"
         ry="5" />
      <path
         style="fill:#008000;stroke:#ffffff;stroke-width:1;stroke-linejoin:round;stroke-dasharray:none"
         d="m 71.89956,108.29126 h 12.369634 l 3.81699,4.5288 h 7.76022 c 4.024309,0.68393 2.660685,-6.28511 2.922515,-9.98698 l -4.585226,4.39986 h -3.816991 l -3.287821,-4.39986 -8.402214,-0.16655 V 87.347563"
         id="path4"
         sodipodi:nodetypes="cccccccccc" />
      <circle
         style="fill:#008000;stroke:#ffffff;stroke-width:1;stroke-dasharray:none"
         id="circle2"
         cx="63.083725"
         cy="59.790573"
         r="11.142066" />
      <rect
         style="fill:#008000;stroke:#ffffff;stroke-width:1;stroke-dasharray:none"
         id="rect2"
         width="31.051659"
         height="50.242641"
         x="47.923206"
         y="72.02858"
         rx="5"
         ry="5" />
      <path
         style="fill:#008000;stroke:#ffffff;stroke-width:1;stroke-linejoin:round;stroke-dasharray:none"
         d="m 48.087057,101.94127 h 12.369634 l 3.81699,4.52881 h 7.760224 c 4.024302,0.68393 2.660682,-6.28513 2.922508,-9.986999 l -4.585223,4.399859 h -3.816991 l -3.287821,-4.399859 -8.402214,-0.16655 V 80.997565"
         id="path3"
         sodipodi:nodetypes="cccccccccc" />
      <circle
         style="fill:#008000;stroke:#ffffff;stroke-width:1;stroke-dasharray:none"
         id="path1"
         cx="39.271217"
         cy="66.669746"
         r="11.142066" />
      <rect
         style="fill:#008000;stroke:#ffffff;stroke-width:1;stroke-dasharray:none"
         id="rect1"
         width="31.051659"
         height="50.242641"
         x="24.110701"
         y="78.907753"
         rx="5"
         ry="5" />
      <path
         style="fill:#008000;stroke:#ffffff;stroke-width:1;stroke-linejoin:round;stroke-dasharray:none"
         d="m 24.274554,108.82048 h 12.369634 l 3.81699,4.52881 h 7.760224 c 4.024302,0.68393 2.660682,-6.28513 2.922508,-9.98702 l -4.585223,4.39988 h -3.816991 l -3.287821,-4.39988 -8.402214,-0.16655 V 87.876736"
         id="path2"
         sodipodi:nodetypes="cccccccccc" />
    </g>
    <g
       id="g7"
       transform="matrix(-1,0,0,1,243.31475,0)"
       style="fill:#000080">
      <circle
         style="fill:#000080;stroke:#ffffff;stroke-width:1;stroke-dasharray:none"
         id="circle1"
         cx="86.896217"
         cy="66.140572"
         r="11.142066" />
      <rect
         style="fill:#000080;stroke:#ffffff;stroke-width:1;stroke-dasharray:none"
         id="rect4"
         width="31.051659"
         height="50.242641"
         x="71.73571"
         y="78.378571"
         rx="5"
         ry="5" />
      <path
         style="fill:#000080;stroke:#ffffff;stroke-width:1;stroke-linejoin:round;stroke-dasharray:none"
         d="m 71.89956,108.29126 h 12.369634 l 3.81699,4.5288 h 7.76022 c 4.024309,0.68393 2.660685,-6.28511 2.922515,-9.98698 l -4.585226,4.39986 h -3.816991 l -3.287821,-4.39986 -8.402214,-0.16655 V 87.347563"
         id="path5"
         sodipodi:nodetypes="cccccccccc" />
      <circle
         style="fill:#000080;stroke:#ffffff;stroke-width:1;stroke-dasharray:none"
         id="circle5"
         cx="63.083725"
         cy="59.790573"
         r="11.142066" />
      <rect
         style="fill:#000080;stroke:#ffffff;stroke-width:1;stroke-dasharray:none"
         id="rect5"
         width="31.051659"
         height="50.242641"
         x="47.923206"
         y="72.02858"
         rx="5"
         ry="5" />
      <path
         style="fill:#000080;stroke:#ffffff;stroke-width:1;stroke-linejoin:round;stroke-dasharray:none"
         d="m 48.087057,101.94127 h 12.369634 l 3.81699,4.52881 h 7.760224 c 4.024302,0.68393 2.660682,-6.28513 2.922508,-9.986999 l -4.585223,4.399859 h -3.816991 l -3.287821,-4.399859 -8.402214,-0.16655 V 80.997565"
         id="path6"
         sodipodi:nodetypes="cccccccccc" />
      <circle
         style="fill:#000080;stroke:#ffffff;stroke-width:1;stroke-dasharray:none"
         id="circle6"
         cx="39.271217"
         cy="66.669746"
         r="11.142066" />
      <rect
         style="fill:#000080;stroke:#ffffff;stroke-width:1;stroke-dasharray:none"
         id="rect6"
         width="31.051659"
         height="50.242641"
         x="24.110701"
         y="78.907753"
         rx="5"
         ry="5" />
      <path
         style="fill:#000080;stroke:#ffffff;stroke-width:1;stroke-linejoin:round;stroke-dasharray:none"
         d="m 24.274554,108.82048 h 12.369634 l 3.81699,4.52881 h 7.760224 c 4.024302,0.68393 2.660682,-6.28513 2.922508,-9.98702 l -4.585223,4.39988 h -3.816991 l -3.287821,-4.39988 -8.402214,-0.16655 V 87.876736"
         id="path7"
         sodipodi:nodetypes="cccccccccc" />
    </g>
    <rect
       style="fill:none;stroke:#000000;stroke-width:1.5;stroke-linecap:round;stroke-linejoin:round;stroke-dasharray:none"
       id="rect7"
       width="138.93707"
       height="195.64609"
       x="112.07675"
       y="-52.793526" />
    <rect
       style="fill:none;stroke:#000000;stroke-width:1.5;stroke-linecap:round;stroke-linejoin:round;stroke-dasharray:none"
       id="rect8"
       width="9.0734406"
       height="45.367207"
       x="126.25401"
       y="-19.335213" />
    <rect
       style="fill:none;stroke:#000000;stroke-width:1.5;stroke-linecap:round;stroke-linejoin:round;stroke-dasharray:none"
       id="rect9"
       width="9.0734406"
       height="45.367207"
       x="142.12903"
       y="-19.335213" />
    <rect
       style="fill:none;stroke:#000000;stroke-width:1.5;stroke-linecap:round;stroke-linejoin:round;stroke-dasharray:none"
       id="rect10"
       width="9.0734406"
       height="45.367207"
       x="158.00404"
       y="-19.335213" />
    <rect
       style="fill:none;stroke:#000000;stroke-width:1.5;stroke-linecap:round;stroke-linejoin:round;stroke-dasharray:none"
       id="rect11"
       width="9.0734406"
       height="45.367207"
       x="173.87906"
       y="-19.335213" />
    <rect
       style="fill:none;stroke:#000000;stroke-width:1.5;stroke-linecap:round;stroke-linejoin:round;stroke-dasharray:none"
       id="rect12"
       width="9.0734406"
       height="45.367207"
       x="189.75407"
       y="-19.335213" />
    <rect
       style="fill:none;stroke:#000000;stroke-width:1.5;stroke-linecap:round;stroke-linejoin:round;stroke-dasharray:none"
       id="rect13"
       width="9.0734406"
       height="45.367207"
       x="205.62909"
       y="-19.335213" />
    <rect
       style="fill:none;stroke:#000000;stroke-width:1.5;stroke-linecap:round;stroke-linejoin:round;stroke-dasharray:none"
       id="rect14"
       width="9.0734406"
       height="45.367207"
       x="221.5041"
       y="-19.335213" />
  </g>
</svg>
