<?xml version="1.0" encoding="UTF-8" standalone="no"?>
<!-- Created with Inkscape (http://www.inkscape.org/) -->

<svg
   width="210mm"
   height="297mm"
   viewBox="0 0 210 297"
   version="1.1"
   id="svg5"
   xmlns="http://www.w3.org/2000/svg"
   xmlns:svg="http://www.w3.org/2000/svg">
  <defs
     id="defs2" />
  <g
     id="layer1">
    <path
       id="rect768"
       style="fill:#ffefd5"
       d="m 30.436902,25.543144 c -8.30984,0 -15.000118,6.690278 -15.000118,15.000118 V 123.6648 c 0,8.3098 6.690278,15.00012 15.000118,15.00012 H 184.63576 c 8.3098,0 15.00012,-6.69032 15.00012,-15.00012 V 40.543262 c 0,-8.30984 -6.69032,-15.000118 -15.00012,-15.000118 z m 64.234839,17.242358 c 1.633803,0 2.825184,0.680594 3.608048,1.463477 L 96.7481,46.121216 c -0.544615,-0.476537 -1.089061,-0.817005 -1.97404,-0.817005 -1.497649,0 -2.621029,1.19158 -2.621029,3.199805 0,2.076303 0.919177,3.233394 2.893364,3.233394 0.306345,0 0.646363,-0.06799 0.850594,-0.204121 v -1.53169 h -1.633492 v -2.3828 h 4.220414 v 5.276164 c -0.782863,0.748825 -2.178231,1.361674 -3.743957,1.361674 -3.097434,0 -5.582605,-1.872636 -5.582605,-5.650818 0,-3.710126 2.553112,-5.820317 5.514392,-5.820317 z m 16.440339,0.54467 h 2.41691 v 2.212268 h 1.93993 v 2.280481 h -1.93993 v 2.910416 c 0,0.936038 0.47651,1.242302 1.02112,1.242302 0.27231,0 0.54457,-0.06783 0.7488,-0.135909 l 0.44235,2.110465 c -0.4425,0.136154 -1.07209,0.306442 -2.00815,0.306442 -2.2125,0 -3.13159,-1.395834 -3.13159,-3.47214 v -2.961576 h -1.12293 v -2.178162 l 1.29346,-0.102319 z m 9.22476,2.008146 c 2.51885,0 3.70985,1.838074 3.70985,4.118612 0,0.510559 -0.0678,1.021017 -0.11885,1.225248 h -4.85087 c 0.27231,1.021135 1.02149,1.361674 1.97456,1.361674 0.57865,0 1.12312,-0.170196 1.73581,-0.510563 l 0.95291,1.735811 c -0.91903,0.646713 -2.14457,0.987537 -3.09748,0.987537 -2.4848,0 -4.39095,-1.634023 -4.39095,-4.45916 0,-2.757059 2.00868,-4.459159 4.08502,-4.459159 z m -20.0148,0.204122 h 2.92747 v 4.867403 c 0,1.089209 0.27246,1.361674 0.85111,1.361674 0.54461,0 0.85083,-0.204178 1.22525,-0.748792 V 45.54244 h 2.92695 v 8.509558 h -2.38228 l -0.20464,-1.122929 h -0.0677 c -0.68077,0.816903 -1.46372,1.327568 -2.62103,1.327568 -1.87211,0 -2.65514,-1.361797 -2.65514,-3.47214 z m 20.0825,2.008663 c -0.64673,0 -1.19097,0.374305 -1.36116,1.225248 h 2.51871 c 0,-0.646713 -0.27255,-1.225248 -1.15755,-1.225248 z M 87.54091,64.263778 h 2.926953 v 6.058545 c 0,1.974195 0.510825,2.689241 1.668115,2.689241 1.157289,0 1.701705,-0.715046 1.701705,-2.689241 v -6.058545 h 2.825151 v 5.718514 c 0,3.778198 -1.42941,5.547981 -4.526856,5.547981 -3.097447,0 -4.595068,-1.769783 -4.595068,-5.547981 z m 14.22756,2.348694 c 1.39543,0 2.38274,0.561309 3.13159,1.122928 l -1.29346,1.736329 c -0.61269,-0.442499 -1.20823,-0.714686 -1.73582,-0.714686 -0.49356,0 -0.74879,0.136088 -0.74879,0.476457 0,0.442499 0.74895,0.612461 1.59991,0.918807 1.021,0.374422 2.17816,1.021103 2.17816,2.552816 0,1.599775 -1.25947,2.82515 -3.64216,2.82515 -1.08923,0 -2.416621,-0.47635 -3.301605,-1.191141 l 1.293461,-1.804025 c 0.782884,0.578653 1.480834,0.851111 2.076354,0.851111 0.6127,0 0.85112,-0.170179 0.85112,-0.510563 0,-0.442484 -0.78305,-0.647153 -1.63401,-0.987537 -0.987142,-0.391426 -2.144058,-1.12315 -2.144058,-2.518709 0,-1.667852 1.361001,-2.756937 3.369308,-2.756937 z m 8.20363,0 c 2.51884,0 3.70985,1.838066 3.70985,4.118611 0,0.510576 -0.0678,1.021032 -0.11886,1.225248 h -4.85035 c 0.27231,1.021138 1.02096,1.361674 1.97404,1.361674 0.57865,0 1.12313,-0.170179 1.73582,-0.510563 l 0.95343,1.735812 c -0.91904,0.646716 -2.14442,0.987019 -3.09749,0.987019 -2.48481,0 -4.39095,-1.633497 -4.39095,-4.458642 0,-2.757069 2.00817,-4.459159 4.08451,-4.459159 z m 10.38179,0 c 0.52759,0 0.81645,0.0679 1.05472,0.170015 l -0.47646,2.518709 c -0.30634,-0.06807 -0.57849,-0.135909 -0.95291,-0.135909 -0.6127,0 -1.36146,0.374193 -1.76992,1.42937 v 4.731495 h -2.92747 v -8.509559 h 2.3828 l 0.20412,1.463477 h 0.0682 c 0.62971,-1.157293 1.58296,-1.667598 2.4169,-1.667598 z m -10.3141,2.212268 c -0.64659,0 -1.19096,0.374805 -1.36115,1.225765 h 2.51871 c 0,-0.64673 -0.27256,-1.225765 -1.15756,-1.225765 z m 11.60757,1.157552 h 4.28862 v 2.042252 h -4.28862 z m -7.33547,14.125752 c 0.95301,0 1.634,0.612524 1.634,1.463477 0,0.850953 -0.68099,1.463993 -1.634,1.463993 -0.95307,0 -1.63401,-0.61304 -1.63401,-1.463993 0,-0.850953 0.68094,-1.463477 1.63401,-1.463477 z m -29.579594,1.225249 c 1.259399,0 2.65512,0.476924 3.676261,1.481046 l -1.463476,1.838131 c -0.748845,-0.527596 -1.395874,-0.799951 -2.212785,-0.799951 -0.714806,0 -1.157036,0.255245 -1.157036,0.748791 0,0.527595 0.629887,0.714434 1.634009,1.105876 l 1.344104,0.527616 c 1.378544,0.544615 2.161625,1.498083 2.161625,3.029789 0,1.872101 -1.565655,3.539836 -4.322733,3.539836 -1.395563,0 -2.995492,-0.510651 -4.186825,-1.582849 l 1.668116,-2.008146 c 0.782872,0.629699 1.770012,1.072286 2.586922,1.072286 0.884988,0 1.259354,-0.289352 1.259354,-0.782898 0,-0.527595 -0.562054,-0.697875 -1.498099,-1.072286 l -1.378211,-0.578776 c -1.191333,-0.476537 -2.229838,-1.480649 -2.229838,-3.080432 0,-1.889109 1.701908,-3.438033 4.118612,-3.438033 z m 5.889046,0.544669 h 2.41639 v 2.212785 h 1.94045 v 2.280481 h -1.94045 v 2.910417 c 0,0.936046 0.476522,1.242301 1.021126,1.242301 0.272308,0 0.544562,-0.06835 0.748792,-0.136426 l 0.442867,2.110466 c -0.442499,0.136153 -1.072617,0.306441 -2.008663,0.306441 -2.212476,0 -3.131075,-1.395816 -3.131075,-3.472139 v -2.96106 H 88.987333 V 88.19255 l 1.293461,-0.101803 z m 9.360152,2.008663 c 2.178446,0 4.220936,1.633483 4.220936,4.458643 0,2.82516 -2.04249,4.459159 -4.220936,4.459159 -2.178439,0 -4.220414,-1.633999 -4.220414,-4.459159 0,-2.82516 2.041975,-4.458643 4.220414,-4.458643 z m 10.824666,0 c 0.52759,0 0.81644,0.0679 1.05471,0.170016 l -0.47645,2.518709 c -0.30634,-0.06807 -0.5785,-0.135909 -0.95292,-0.135909 -0.61269,0 -1.36146,0.374188 -1.76992,1.42937 v 4.731494 h -2.92747 v -8.509558 h 2.3828 l 0.20413,1.463477 h 0.0682 c 0.62971,-1.157297 1.58297,-1.667599 2.41691,-1.667599 z m 10.5854,0 c 2.51878,0 3.71036,1.838051 3.71036,4.118612 0,0.51057 -0.0678,1.021018 -0.11885,1.225248 h -4.85087 c 0.2723,1.021146 1.02149,1.361674 1.97456,1.361674 0.57866,0 1.12312,-0.170179 1.73581,-0.510563 l 0.95291,1.735811 c -0.91904,0.646729 -2.1444,0.98702 -3.09748,0.98702 -2.4848,0 -4.39095,-1.63399 -4.39095,-4.459159 0,-2.757098 2.00816,-4.458643 4.08451,-4.458643 z m 8.44186,0 c 1.39558,0 2.38274,0.5613 3.13159,1.122929 l -1.29346,1.735811 c -0.61269,-0.442494 -1.20873,-0.714685 -1.73633,-0.714685 -0.49356,0 -0.74879,0.136073 -0.74879,0.476457 0,0.4425 0.74894,0.612979 1.5999,0.919324 1.02115,0.374418 2.17868,1.021093 2.17868,2.552816 0,1.599795 -1.25951,2.82515 -3.64215,2.82515 -1.08923,0 -2.41661,-0.476335 -3.30161,-1.191142 l 1.29346,-1.804024 c 0.78289,0.578648 1.48016,0.850594 2.07584,0.850594 0.61269,0 0.85111,-0.170179 0.85111,-0.510563 0,-0.442499 -0.78253,-0.646636 -1.63349,-0.98702 -0.98711,-0.391436 -2.14457,-1.123145 -2.14457,-2.518709 0,-1.667877 1.36156,-2.756938 3.36982,-2.756938 z m -16.98501,0.204122 h 2.92695 v 8.509558 h -2.92695 z m 8.61136,2.008146 c -0.64673,0 -1.19148,0.374294 -1.36167,1.225248 h 2.51922 c 0,-0.646724 -0.27255,-1.225248 -1.15755,-1.225248 z m -21.478276,0.135909 c -0.884989,0 -1.225248,0.817016 -1.225248,2.110466 0,1.293441 0.340259,2.110465 1.225248,2.110465 0.885006,0 1.225766,-0.817024 1.225766,-2.110465 0,-1.29345 -0.34076,-2.110466 -1.225766,-2.110466 z m 0.510566,15.147398 c 0.95308,0 1.63401,0.61254 1.63401,1.46347 0,0.85096 -0.68093,1.464 -1.63401,1.464 -0.953081,0 -1.633495,-0.61304 -1.633495,-1.464 0,-0.85093 0.680414,-1.46347 1.633495,-1.46347 z m 18.31309,0.64647 h 2.92695 v 11.84527 h -2.3828 l -0.20412,-0.78238 h -0.0682 c -0.57865,0.57866 -1.39522,0.98702 -2.14406,0.98702 -2.11037,0 -3.47214,-1.70205 -3.47214,-4.45916 0,-2.79115 1.73619,-4.45916 3.47214,-4.45916 0.91903,0 1.46347,0.34053 1.97404,0.85111 l -0.1018,-1.22525 z m -24.337531,3.13159 c 1.395567,0 2.382747,0.56181 3.131592,1.12345 l -1.293461,1.73581 c -0.612691,-0.4425 -1.208734,-0.71469 -1.736329,-0.71469 -0.493553,0 -0.748791,0.13608 -0.748791,0.47646 0,0.4425 0.748946,0.61298 1.599902,0.91932 1.021147,0.37442 2.178679,1.02109 2.178679,2.55282 0,1.59981 -1.259479,2.82515 -3.642155,2.82515 -1.089224,0 -2.41713,-0.47685 -3.302124,-1.19166 l 1.293461,-1.80402 c 0.782879,0.57865 1.480687,0.85111 2.076359,0.85111 0.612687,0 0.851111,-0.17017 0.851111,-0.51056 0,-0.4425 -0.783053,-0.64664 -1.634009,-0.98702 -0.98711,-0.39144 -2.144055,-1.12314 -2.144055,-2.51871 0,-1.66788 1.361563,-2.75746 3.36982,-2.75746 z m 14.806331,0 c 1.87211,0 2.65514,1.36176 2.65514,3.47214 v 5.24154 h -2.92747 v -4.8674 c 0,-1.08923 -0.27195,-1.36116 -0.8506,-1.36116 -0.54461,0 -0.85096,0.23801 -1.29346,0.64647 v 5.58209 h -2.92747 v -8.50956 h 2.3828 l 0.20412,1.02113 h 0.0682 c 0.68075,-0.64673 1.53141,-1.22525 2.68872,-1.22525 z m -10.245369,0.20412 h 2.927469 v 8.50956 h -2.927469 z m 18.619019,2.17868 c -0.61269,0 -1.19114,0.54457 -1.19114,2.04225 0,1.53173 0.47647,2.11047 1.25935,2.11047 0.4425,0 0.78247,-0.13634 1.08882,-0.61288 v -3.13159 c -0.34039,-0.30635 -0.78261,-0.40825 -1.15703,-0.40825 z" />
    <g
       id="g613">
      <text
         xml:space="preserve"
         style="font-weight:900;font-size:12.0017px;line-height:1.25;font-family:'Source Sans Pro';-inkscape-font-specification:'Source Sans Pro, Heavy';text-align:center;text-anchor:middle;fill:#00008b;stroke-width:0.264584"
         x="155.33372"
         y="43.973911"
         id="text366"
         transform="scale(1.0169494,0.98333309)"><tspan
           id="tspan364"
           style="fill:#00008b;stroke-width:0.264584"
           x="155.33372"
           y="43.973911">S</tspan></text>
      <text
         xml:space="preserve"
         style="font-weight:900;font-size:12.0017px;line-height:1.25;font-family:'Source Sans Pro';-inkscape-font-specification:'Source Sans Pro, Heavy';text-align:center;text-anchor:middle;fill:#8b4513;stroke-width:0.264584"
         x="155.33372"
         y="60.620941"
         id="text370"
         transform="scale(1.0169494,0.98333309)"><tspan
           id="tspan368"
           style="fill:#8b4513;stroke-width:0.264584"
           x="155.33372"
           y="60.620941">T</tspan></text>
      <text
         xml:space="preserve"
         style="font-weight:900;font-size:12.0017px;line-height:1.25;font-family:'Source Sans Pro';-inkscape-font-specification:'Source Sans Pro, Heavy';text-align:center;text-anchor:middle;fill:#556b2f;stroke-width:0.264584"
         x="155.33372"
         y="77.267975"
         id="text374"
         transform="scale(1.0169494,0.98333309)"><tspan
           id="tspan372"
           style="fill:#556b2f;stroke-width:0.264584"
           x="155.33372"
           y="77.267975">A</tspan></text>
      <text
         xml:space="preserve"
         style="font-weight:900;font-size:12.0017px;line-height:1.25;font-family:'Source Sans Pro';-inkscape-font-specification:'Source Sans Pro, Heavy';text-align:center;text-anchor:middle;fill:#ff8c00;stroke-width:0.264584"
         x="155.33372"
         y="93.915001"
         id="text378"
         transform="scale(1.0169494,0.98333309)"><tspan
           id="tspan376"
           style="fill:#ff8c00;stroke-width:0.264584"
           x="155.33372"
           y="93.915001">U</tspan></text>
      <text
         xml:space="preserve"
         style="font-weight:900;font-size:12.0017px;line-height:1.25;font-family:'Source Sans Pro';-inkscape-font-specification:'Source Sans Pro, Heavy';text-align:center;text-anchor:middle;fill:#ff0000;stroke-width:0.264584"
         x="155.33372"
         y="110.70605"
         id="text382"
         transform="scale(1.0169494,0.98333309)"><tspan
           id="tspan380"
           style="fill:#ff0000;stroke-width:0.264584"
           x="155.33372"
           y="110.70605">N</tspan></text>
      <text
         xml:space="preserve"
         style="font-weight:900;font-size:12.0017px;line-height:1.25;font-family:'Source Sans Pro';-inkscape-font-specification:'Source Sans Pro, Heavy';text-align:center;text-anchor:middle;fill:#9400d3;stroke-width:0.264584"
         x="155.22571"
         y="127.4971"
         id="text386"
         transform="scale(1.0169494,0.98333309)"><tspan
           id="tspan384"
           style="fill:#9400d3;stroke-width:0.264584"
           x="155.22571"
           y="127.4971">E</tspan></text>
      <text
         xml:space="preserve"
         style="font-style:normal;font-variant:normal;font-weight:normal;font-stretch:normal;font-size:5.29167px;line-height:1.25;font-family:'Source Sans Pro';-inkscape-font-specification:'Source Sans Pro, Normal';font-variant-ligatures:normal;font-variant-caps:normal;font-variant-numeric:normal;font-variant-east-asian:normal;text-align:start;baseline-shift:baseline;text-anchor:start;fill:#ff8c00;stroke-width:0.264583"
         x="162.60515"
         y="92.349724"
         id="text448"><tspan
           id="tspan446"
           style="font-style:normal;font-variant:normal;font-weight:normal;font-stretch:normal;font-size:5.29167px;font-family:'Source Sans Pro';-inkscape-font-specification:'Source Sans Pro, Normal';font-variant-ligatures:normal;font-variant-caps:normal;font-variant-numeric:normal;font-variant-east-asian:normal;text-align:start;baseline-shift:baseline;text-anchor:start;fill:#ff8c00;stroke-width:0.264583"
           x="162.60515"
           y="92.349724">nabhängig</tspan></text>
      <text
         xml:space="preserve"
         style="font-style:normal;font-variant:normal;font-weight:normal;font-stretch:normal;font-size:5.29167px;line-height:1.25;font-family:'Source Sans Pro';-inkscape-font-specification:'Source Sans Pro, Normal';font-variant-ligatures:normal;font-variant-caps:normal;font-variant-numeric:normal;font-variant-east-asian:normal;fill:#556b2f;stroke-width:0.264583"
         x="162.60515"
         y="75.980156"
         id="text456"><tspan
           id="tspan454"
           style="font-style:normal;font-variant:normal;font-weight:normal;font-stretch:normal;font-size:5.29167px;font-family:'Source Sans Pro';-inkscape-font-specification:'Source Sans Pro, Normal';font-variant-ligatures:normal;font-variant-caps:normal;font-variant-numeric:normal;font-variant-east-asian:normal;fill:#556b2f;stroke-width:0.264583"
           x="162.60515"
           y="75.980156">npassbar</tspan></text>
      <text
         xml:space="preserve"
         style="font-style:normal;font-variant:normal;font-weight:normal;font-stretch:normal;font-size:5.29167px;line-height:1.25;font-family:'Source Sans Pro';-inkscape-font-specification:'Source Sans Pro, Normal';font-variant-ligatures:normal;font-variant-caps:normal;font-variant-numeric:normal;font-variant-east-asian:normal;fill:#ff0000;stroke-width:0.264583"
         x="162.60515"
         y="108.86092"
         id="text464"><tspan
           id="tspan462"
           style="font-style:normal;font-variant:normal;font-weight:normal;font-stretch:normal;font-size:5.29167px;font-family:'Source Sans Pro';-inkscape-font-specification:'Source Sans Pro, Normal';font-variant-ligatures:normal;font-variant-caps:normal;font-variant-numeric:normal;font-variant-east-asian:normal;fill:#ff0000;stroke-width:0.264583"
           x="162.60515"
           y="108.86092">ützlich</tspan></text>
      <text
         xml:space="preserve"
         style="font-style:normal;font-variant:normal;font-weight:normal;font-stretch:normal;font-size:5.29167px;line-height:1.25;font-family:'Source Sans Pro';-inkscape-font-specification:'Source Sans Pro, Normal';font-variant-ligatures:normal;font-variant-caps:normal;font-variant-numeric:normal;font-variant-east-asian:normal;fill:#00008b;stroke-width:0.264583"
         x="162.60515"
         y="43.241001"
         id="text472"><tspan
           id="tspan470"
           style="font-style:normal;font-variant:normal;font-weight:normal;font-stretch:normal;font-size:5.29167px;font-family:'Source Sans Pro';-inkscape-font-specification:'Source Sans Pro, Normal';font-variant-ligatures:normal;font-variant-caps:normal;font-variant-numeric:normal;font-variant-east-asian:normal;fill:#00008b;stroke-width:0.264583"
           x="162.60515"
           y="43.241001">impel</tspan></text>
      <text
         xml:space="preserve"
         style="font-style:normal;font-variant:normal;font-weight:normal;font-stretch:normal;font-size:5.29167px;line-height:1.25;font-family:'Source Sans Pro';-inkscape-font-specification:'Source Sans Pro, Normal';font-variant-ligatures:normal;font-variant-caps:normal;font-variant-numeric:normal;font-variant-east-asian:normal;fill:#9400d3;stroke-width:0.264583"
         x="162.60515"
         y="125.37212"
         id="text480"><tspan
           id="tspan478"
           style="font-style:normal;font-variant:normal;font-weight:normal;font-stretch:normal;font-size:5.29167px;font-family:'Source Sans Pro';-inkscape-font-specification:'Source Sans Pro, Normal';font-variant-ligatures:normal;font-variant-caps:normal;font-variant-numeric:normal;font-variant-east-asian:normal;fill:#9400d3;stroke-width:0.264583"
           x="162.60515"
           y="125.37212">inschätzbar</tspan></text>
      <text
         xml:space="preserve"
         style="font-style:normal;font-variant:normal;font-weight:normal;font-stretch:normal;font-size:5.29167px;line-height:1.25;font-family:'Source Sans Pro';-inkscape-font-specification:'Source Sans Pro, Normal';font-variant-ligatures:normal;font-variant-caps:normal;font-variant-numeric:normal;font-variant-east-asian:normal;fill:#8b4513;stroke-width:0.264583"
         x="162.60515"
         y="59.610577"
         id="text488"><tspan
           id="tspan486"
           style="font-style:normal;font-variant:normal;font-weight:normal;font-stretch:normal;font-size:5.29167px;font-family:'Source Sans Pro';-inkscape-font-specification:'Source Sans Pro, Normal';font-variant-ligatures:normal;font-variant-caps:normal;font-variant-numeric:normal;font-variant-east-asian:normal;fill:#8b4513;stroke-width:0.264583"
           x="162.60515"
           y="59.610577">estbar</tspan></text>
    </g>
    <g
       id="g587"
       transform="translate(0,-0.07081001)">
      <text
         xml:space="preserve"
         style="font-style:normal;font-variant:normal;font-weight:900;font-stretch:normal;font-size:12.0017px;line-height:1.25;font-family:'Source Sans Pro';-inkscape-font-specification:'Source Sans Pro Heavy';text-align:center;text-anchor:middle;fill:#ff8c00;stroke-width:0.264584"
         x="26.402359"
         y="43.973911"
         id="text236"
         transform="scale(1.0169494,0.98333309)"><tspan
           id="tspan234"
           style="font-style:normal;font-variant:normal;font-weight:900;font-stretch:normal;font-family:'Source Sans Pro';-inkscape-font-specification:'Source Sans Pro Heavy';fill:#ff8c00;stroke-width:0.264584"
           x="26.402359"
           y="43.973911">I</tspan><tspan
           style="font-style:normal;font-variant:normal;font-weight:900;font-stretch:normal;font-family:'Source Sans Pro';-inkscape-font-specification:'Source Sans Pro Heavy';fill:#ff8c00;stroke-width:0.264584"
           x="26.402359"
           y="58.976036"
           id="tspan238" /></text>
      <text
         xml:space="preserve"
         style="font-size:12.0017px;line-height:1.25;font-family:'Source Sans Pro';-inkscape-font-specification:'Source Sans Pro, Normal';text-align:center;text-anchor:middle;fill:#556b2f;stroke-width:0.264584"
         x="26.402355"
         y="60.620941"
         id="text242"
         transform="scale(1.0169494,0.98333309)"><tspan
           id="tspan240"
           style="font-style:normal;font-variant:normal;font-weight:900;font-stretch:normal;font-size:12.0017px;font-family:'Source Sans Pro';-inkscape-font-specification:'Source Sans Pro, Heavy';font-variant-ligatures:normal;font-variant-caps:normal;font-variant-numeric:normal;font-variant-east-asian:normal;fill:#556b2f;stroke-width:0.264584"
           x="26.402355"
           y="60.620941">N</tspan></text>
      <text
         xml:space="preserve"
         style="font-weight:900;font-size:12.0017px;line-height:1.25;font-family:'Source Sans Pro';-inkscape-font-specification:'Source Sans Pro, Heavy';text-align:center;text-anchor:middle;fill:#ff0000;stroke-width:0.264584"
         x="26.402351"
         y="77.267975"
         id="text246"
         transform="scale(1.0169494,0.98333309)"><tspan
           id="tspan244"
           style="fill:#ff0000;stroke-width:0.264584"
           x="26.402351"
           y="77.267975">V</tspan></text>
      <text
         xml:space="preserve"
         style="font-weight:900;font-size:12.0017px;line-height:1.25;font-family:'Source Sans Pro';-inkscape-font-specification:'Source Sans Pro, Heavy';text-align:center;text-anchor:middle;fill:#9400d3;stroke-width:0.264584"
         x="26.294342"
         y="93.915001"
         id="text300"
         transform="scale(1.0169494,0.98333309)"><tspan
           id="tspan298"
           style="fill:#9400d3;stroke-width:0.264584"
           x="26.294342"
           y="93.915001">E</tspan></text>
      <text
         xml:space="preserve"
         style="font-weight:900;font-size:12.0017px;line-height:1.25;font-family:'Source Sans Pro';-inkscape-font-specification:'Source Sans Pro, Heavy';text-align:center;text-anchor:middle;fill:#00008b;stroke-width:0.264584"
         x="26.402355"
         y="110.70605"
         id="text304"
         transform="scale(1.0169494,0.98333309)"><tspan
           id="tspan302"
           style="fill:#00008b;stroke-width:0.264584"
           x="26.402355"
           y="110.70605">S</tspan></text>
      <text
         xml:space="preserve"
         style="font-weight:900;font-size:12.0017px;line-height:1.25;font-family:'Source Sans Pro';-inkscape-font-specification:'Source Sans Pro, Heavy';text-align:center;text-anchor:middle;fill:#8b4513;stroke-width:0.264584"
         x="26.402355"
         y="127.4971"
         id="text308"
         transform="scale(1.0169494,0.98333309)"><tspan
           id="tspan306"
           style="fill:#8b4513;stroke-width:0.264584"
           x="26.402355"
           y="127.4971">T</tspan></text>
      <text
         xml:space="preserve"
         style="font-style:normal;font-variant:normal;font-weight:normal;font-stretch:normal;font-size:5.29167px;line-height:1.25;font-family:'Source Sans Pro';-inkscape-font-specification:'Source Sans Pro, Normal';font-variant-ligatures:normal;font-variant-caps:normal;font-variant-numeric:normal;font-variant-east-asian:normal;text-align:start;text-anchor:start;fill:#ff8c00;stroke-width:0.264583"
         x="31.801661"
         y="43.241001"
         id="text444"><tspan
           id="tspan442"
           style="font-style:normal;font-variant:normal;font-weight:normal;font-stretch:normal;font-size:5.29167px;font-family:'Source Sans Pro';-inkscape-font-specification:'Source Sans Pro, Normal';font-variant-ligatures:normal;font-variant-caps:normal;font-variant-numeric:normal;font-variant-east-asian:normal;text-align:start;text-anchor:start;fill:#ff8c00;stroke-width:0.264583"
           x="31.801661"
           y="43.241001">ndependent</tspan></text>
      <text
         xml:space="preserve"
         style="font-style:normal;font-variant:normal;font-weight:normal;font-stretch:normal;font-size:5.29167px;line-height:1.25;font-family:'Source Sans Pro';-inkscape-font-specification:'Source Sans Pro, Normal';font-variant-ligatures:normal;font-variant-caps:normal;font-variant-numeric:normal;font-variant-east-asian:normal;text-align:start;text-anchor:start;fill:#556b2f;stroke-width:0.264583"
         x="31.801661"
         y="59.610577"
         id="text452"><tspan
           id="tspan450"
           style="font-style:normal;font-variant:normal;font-weight:normal;font-stretch:normal;font-size:5.29167px;font-family:'Source Sans Pro';-inkscape-font-specification:'Source Sans Pro, Normal';font-variant-ligatures:normal;font-variant-caps:normal;font-variant-numeric:normal;font-variant-east-asian:normal;text-align:start;text-anchor:start;fill:#556b2f;stroke-width:0.264583"
           x="31.801661"
           y="59.610577">egotiable</tspan></text>
      <text
         xml:space="preserve"
         style="font-style:normal;font-variant:normal;font-weight:normal;font-stretch:normal;font-size:5.29167px;line-height:1.25;font-family:'Source Sans Pro';-inkscape-font-specification:'Source Sans Pro, Normal';font-variant-ligatures:normal;font-variant-caps:normal;font-variant-numeric:normal;font-variant-east-asian:normal;fill:#ff0000;stroke-width:0.264583"
         x="31.801661"
         y="75.980156"
         id="text460"><tspan
           id="tspan458"
           style="font-style:normal;font-variant:normal;font-weight:normal;font-stretch:normal;font-size:5.29167px;font-family:'Source Sans Pro';-inkscape-font-specification:'Source Sans Pro, Normal';font-variant-ligatures:normal;font-variant-caps:normal;font-variant-numeric:normal;font-variant-east-asian:normal;fill:#ff0000;stroke-width:0.264583"
           x="31.801661"
           y="75.980156">aluable</tspan></text>
      <text
         xml:space="preserve"
         style="font-style:normal;font-variant:normal;font-weight:normal;font-stretch:normal;font-size:5.29167px;line-height:1.25;font-family:'Source Sans Pro';-inkscape-font-specification:'Source Sans Pro, Normal';font-variant-ligatures:normal;font-variant-caps:normal;font-variant-numeric:normal;font-variant-east-asian:normal;fill:#9400d3;stroke-width:0.264583"
         x="31.801661"
         y="92.349724"
         id="text468"><tspan
           id="tspan466"
           style="font-style:normal;font-variant:normal;font-weight:normal;font-stretch:normal;font-size:5.29167px;font-family:'Source Sans Pro';-inkscape-font-specification:'Source Sans Pro, Normal';font-variant-ligatures:normal;font-variant-caps:normal;font-variant-numeric:normal;font-variant-east-asian:normal;fill:#9400d3;stroke-width:0.264583"
           x="31.801661"
           y="92.349724">stimable</tspan></text>
      <text
         xml:space="preserve"
         style="font-style:normal;font-variant:normal;font-weight:normal;font-stretch:normal;font-size:5.29167px;line-height:1.25;font-family:'Source Sans Pro';-inkscape-font-specification:'Source Sans Pro, Normal';font-variant-ligatures:normal;font-variant-caps:normal;font-variant-numeric:normal;font-variant-east-asian:normal;fill:#00008b;stroke-width:0.264583"
         x="31.801661"
         y="108.86092"
         id="text476"><tspan
           id="tspan474"
           style="font-style:normal;font-variant:normal;font-weight:normal;font-stretch:normal;font-size:5.29167px;font-family:'Source Sans Pro';-inkscape-font-specification:'Source Sans Pro, Normal';font-variant-ligatures:normal;font-variant-caps:normal;font-variant-numeric:normal;font-variant-east-asian:normal;fill:#00008b;stroke-width:0.264583"
           x="31.801661"
           y="108.86092">imple</tspan></text>
      <text
         xml:space="preserve"
         style="font-style:normal;font-variant:normal;font-weight:normal;font-stretch:normal;font-size:5.29167px;line-height:1.25;font-family:'Source Sans Pro';-inkscape-font-specification:'Source Sans Pro, Normal';font-variant-ligatures:normal;font-variant-caps:normal;font-variant-numeric:normal;font-variant-east-asian:normal;fill:#8b4513;stroke-width:0.264583"
         x="31.801661"
         y="125.37212"
         id="text484"><tspan
           id="tspan482"
           style="font-style:normal;font-variant:normal;font-weight:normal;font-stretch:normal;font-size:5.29167px;font-family:'Source Sans Pro';-inkscape-font-specification:'Source Sans Pro, Normal';font-variant-ligatures:normal;font-variant-caps:normal;font-variant-numeric:normal;font-variant-east-asian:normal;fill:#8b4513;stroke-width:0.264583"
           x="31.801661"
           y="125.37212">estable</tspan></text>
    </g>
  </g>
</svg>
