<?xml version="1.0" encoding="UTF-8" standalone="no"?>
<!-- Created with Inkscape (http://www.inkscape.org/) -->

<svg
   width="161.03038mm"
   height="161.02928mm"
   viewBox="0 0 161.03038 161.02928"
   version="1.1"
   id="svg1"
   xmlns:xlink="http://www.w3.org/1999/xlink"
   xmlns="http://www.w3.org/2000/svg"
   xmlns:svg="http://www.w3.org/2000/svg">
  <defs
     id="defs1" />
  <g
     id="layer1"
     transform="translate(12.158667,-10.465704)">
    <path
       style="fill:#000000;stroke:#ffffff;stroke-width:1;stroke-linejoin:round;stroke-dasharray:none"
       d="M 89.239003,108.29126 H 76.869426 l -3.81699,4.5288 h -7.760222 c -4.02431,0.68393 -2.66069,-6.28511 -2.92252,-9.98698 l 4.58523,4.39986 h 3.81699 l 3.287825,-4.39986 8.402203,-0.16655 V 87.347563"
       id="path4" />
    <circle
       style="fill:#000000;stroke:#ffffff;stroke-width:1;stroke-dasharray:none"
       id="circle3"
       cx="97.479546"
       cy="66.140572"
       r="11.142066" />
    <rect
       style="fill:#000000;stroke:#ffffff;stroke-width:1;stroke-dasharray:none"
       id="rect3"
       width="31.051659"
       height="50.242641"
       x="82.319038"
       y="78.378571"
       rx="5"
       ry="5" />
    <circle
       style="fill:#000000;stroke:#ffffff;stroke-width:1;stroke-dasharray:none"
       id="path1"
       cx="39.271217"
       cy="66.669746"
       r="11.142066" />
    <rect
       style="fill:#000000;stroke:#ffffff;stroke-width:1;stroke-dasharray:none"
       id="rect1"
       width="31.051659"
       height="50.242641"
       x="24.110701"
       y="78.907753"
       rx="5"
       ry="5" />
    <path
       style="fill:#000000;stroke:#ffffff;stroke-width:1;stroke-linejoin:round;stroke-dasharray:none"
       d="m 24.274554,108.82048 h 12.369634 l 3.81699,4.52881 h 7.760224 c 4.024302,0.68393 2.660682,-6.28513 2.922508,-9.98702 l -4.585223,4.39988 h -3.816991 l -3.287821,-4.39988 -8.402214,-0.16655 V 87.876736"
       id="path2" />
    <path
       d="M 68.356832,170.43423 81.827327,157.18595 68.356832,143.93818 c -0.914001,1e-5 -1.822268,-0.0235 -2.724898,-0.0692 -0.902631,-0.0457 -1.799608,-0.11373 -2.689759,-0.20412 -0.890151,-0.0904 -1.773405,-0.20301 -2.649967,-0.33693 -0.876563,-0.13393 -1.746245,-0.28925 -2.60811,-0.46561 -0.861865,-0.17635 -1.716059,-0.3735 -2.562117,-0.59117 -0.846058,-0.21767 -1.683883,-0.45578 -2.513025,-0.71366 -0.829142,-0.25787 -1.649715,-0.53552 -2.460832,-0.8325 -0.811117,-0.29698 -1.613038,-0.6133 -2.405021,-0.94827 -0.791983,-0.33497 -1.573854,-0.68906 -2.345593,-1.06091 -0.771739,-0.37185 -1.533195,-0.76182 -2.283582,-1.16944 -0.750386,-0.40762 -1.490028,-0.83257 -2.217952,-1.27486 -0.727925,-0.44228 -1.444353,-0.90185 -2.148706,-1.37769 -0.704354,-0.47584 -1.396169,-0.96811 -2.075843,-1.4764 -0.679673,-0.50828 -1.347027,-1.03237 -2.000911,-1.57199 -0.653884,-0.53963 -1.294344,-1.09465 -1.92133,-1.6645 -0.626985,-0.56985 -1.240703,-1.15442 -1.839681,-1.75338 -0.598978,-0.59897 -1.18352,-1.21219 -1.753381,-1.83917 -0.569861,-0.62697 -1.124863,-1.26797 -1.664498,-1.92184 -0.539635,-0.65388 -1.063698,-1.32074 -1.571997,-2.0004 -0.5083,-0.67966 -1.000541,-1.37201 -1.476396,-2.07636 -0.475855,-0.70434 -0.935392,-1.42079 -1.377693,-2.1487 -0.442302,-0.72792 -0.867736,-1.46758 -1.275375,-2.21796 -0.407638,-0.75038 -0.797571,-1.51133 -1.169437,-2.28306 -0.371867,-0.77173 -0.725415,-1.55414 -1.060401,-2.34611 -0.334985,-0.79198 -0.651267,-1.59391 -0.948262,-2.40502 -0.296996,-0.81111 -0.574612,-1.63118 -0.832508,-2.46032 -0.257895,-0.82913 -0.495964,-1.66697 -0.713651,-2.51302 -0.217687,-0.84606 -0.415326,-1.70026 -0.591695,-2.56212 -0.17637,-0.86186 -0.331663,-1.73155 -0.465605,-2.60811 -0.133942,-0.87656 -0.246524,-1.760335 -0.33693,-2.650484 -0.09041,-0.890149 -0.158878,-1.786612 -0.204639,-2.689242 -0.04576,-0.902629 -0.06872,-1.811414 -0.06873,-2.725415 L 2.1500203,104.45066 -11.098267,90.980169 c 7e-6,1.371298 0.03522,2.734402 0.10387,4.08864 0.06865,1.354238 0.170805,2.699899 0.306441,4.035412 0.135636,1.335509 0.304442,2.661379 0.505396,3.976499 0.200954,1.31513 0.4340567,2.61935 0.6986651,3.91243 0.2646085,1.29307 0.5606858,2.57485 0.8872844,3.84421 0.3265985,1.26935 0.6838111,2.52633 1.0707357,3.77031 0.3869245,1.24397 0.8039497,2.47483 1.2495361,3.69176 0.4455864,1.21693 0.920068,2.41983 1.4226522,3.60805 0.5025842,1.18822 1.0331995,2.36183 1.5911173,3.51968 0.5579179,1.15785 1.1428275,2.30034 1.7544149,3.42615 0.61158741,1.12581 1.24946866,2.23482 1.91306152,3.32693 0.66359288,1.09211 1.35312308,2.16734 2.06705728,3.22409 0.7139342,1.05675 1.4522405,2.09534 2.2148519,3.11506 0.7626114,1.01971 1.5494046,2.02034 2.3590291,3.00136 0.8096246,0.98103 1.6425485,1.94236 2.497522,2.88303 0.8549735,0.94067 1.7321885,1.86088 2.6308475,2.75952 0.898658,0.89865 1.818325,1.77589 2.759004,2.63085 0.94068,0.85496 1.901993,1.68739 2.883029,2.49701 0.981035,0.80961 1.982155,1.59591 3.001884,2.35851 1.019728,0.7626 2.058298,1.50145 3.115055,2.21537 1.056757,0.71392 2.131455,1.40296 3.223576,2.06654 1.092121,0.66357 2.201624,1.302 3.327445,1.91358 1.125822,0.61157 2.26829,1.19651 3.426148,1.75441 1.157857,0.5579 2.330935,1.08855 3.519165,1.59112 1.188229,0.50257 2.391628,0.97708 3.608565,1.42265 1.216937,0.44557 2.447783,0.86211 3.691764,1.24902 1.243981,0.38691 2.500952,0.74415 3.770313,1.07073 1.269361,0.32659 2.551133,0.6227 3.84421,0.88729 1.293076,0.26459 2.597294,0.49773 3.912422,0.69866 1.315128,0.20094 2.640987,0.36978 3.976502,0.5054 1.335515,0.13562 2.680657,0.23781 4.034896,0.30644 1.354238,0.0686 2.717341,0.10337 4.088639,0.10335 z"
       style="fill:#0000ff;stroke:#ffffff;stroke-width:2.12129;stroke-linejoin:round"
       id="path10" />
    <path
       d="m 121.31484,90.980169 c -1e-5,0.913988 -0.0235,1.822799 -0.0692,2.725415 -0.0458,0.902617 -0.11372,1.799105 -0.20412,2.689242 -0.0904,0.890137 -0.20299,1.773936 -0.33693,2.650484 -0.13394,0.876548 -0.28924,1.74574 -0.4656,2.60759 -0.17637,0.86185 -0.37402,1.71608 -0.5917,2.56212 -0.21768,0.84604 -0.45576,1.6839 -0.71365,2.51303 -0.25789,0.82912 -0.53552,1.64973 -0.83251,2.46083 -0.29699,0.8111 -0.61328,1.61305 -0.94826,2.40502 -0.33498,0.79197 -0.68854,1.57387 -1.0604,2.34559 -0.37186,0.77173 -0.76181,1.53321 -1.16944,2.28358 -0.40763,0.75037 -0.83308,1.48953 -1.27537,2.21744 -0.44229,0.72791 -0.90134,1.44437 -1.37718,2.1487 -0.47584,0.70434 -0.96811,1.39671 -1.4764,2.07636 -0.50828,0.67966 -1.03289,1.34653 -1.57251,2.0004 -0.53962,0.65387 -1.09465,1.29487 -1.6645,1.92185 -0.56984,0.62697 -1.15441,1.2402 -1.75338,1.83916 -0.59896,0.59896 -1.21219,1.18353 -1.83916,1.75338 -0.62697,0.56985 -1.26746,1.12488 -1.92133,1.6645 -0.65387,0.53962 -1.32126,1.06371 -2.00091,1.572 -0.679662,0.50828 -1.372024,1.00106 -2.076363,1.47691 -0.704338,0.47584 -1.42028,0.93488 -2.148189,1.37717 -0.727909,0.4423 -1.467581,0.86775 -2.217952,1.27538 -0.750372,0.40763 -1.511858,0.79758 -2.283582,1.16944 -0.771724,0.37185 -1.553626,0.72542 -2.345593,1.0604 -0.791968,0.33497 -1.59392,0.65127 -2.405021,0.94826 -0.811102,0.29699 -1.631188,0.57462 -2.460315,0.83251 -0.829127,0.25789 -1.666982,0.49597 -2.513025,0.71365 -0.846043,0.21768 -1.700268,0.41481 -2.562118,0.59118 -0.86185,0.17636 -1.731561,0.33218 -2.608109,0.46612 -0.876548,0.13394 -1.760348,0.24601 -2.650485,0.33641 -0.890136,0.0904 -1.786625,0.15888 -2.689241,0.20464 -0.902617,0.0458 -1.811428,0.0692 -2.725415,0.0692 l 13.470495,13.24777 -13.470495,13.24828 c 1.371284,0 2.734931,-0.0347 4.089156,-0.10335 1.354224,-0.0687 2.699395,-0.17132 4.034896,-0.30696 1.335501,-0.13563 2.660871,-0.30392 3.975984,-0.50488 1.315114,-0.20095 2.619878,-0.43457 3.91294,-0.69918 1.293061,-0.2646 2.574864,-0.56069 3.84421,-0.88728 1.269345,-0.32659 2.526346,-0.6833 3.770312,-1.07022 1.243966,-0.38692 2.474843,-0.80396 3.691765,-1.24954 1.216922,-0.44558 2.419834,-0.92007 3.608048,-1.42265 1.188217,-0.50257 2.361837,-1.03321 3.519677,-1.59112 1.15785,-0.5579 2.29983,-1.14283 3.42564,-1.75441 1.1258,-0.61158 2.23534,-1.24948 3.32744,-1.91306 1.09211,-0.66358 2.16684,-1.35314 3.22358,-2.06706 1.05674,-0.71392 2.09534,-1.45225 3.11505,-2.21485 1.01972,-0.7626 2.02035,-1.54942 3.00137,-2.35903 0.98102,-0.80961 1.94236,-1.64205 2.88303,-2.49701 0.94066,-0.85496 1.86087,-1.7322 2.75952,-2.63084 0.89864,-0.89865 1.77589,-1.81886 2.63085,-2.75952 0.85496,-0.94067 1.68739,-1.90201 2.497,-2.88303 0.80961,-0.98102 1.59643,-1.98166 2.35903,-3.00137 0.7626,-1.01971 1.50093,-2.05831 2.21485,-3.11506 0.71392,-1.05674 1.40348,-2.13147 2.06706,-3.22357 0.66358,-1.09211 1.30148,-2.20164 1.91306,-3.32745 0.61158,-1.1258 1.19651,-2.2683 1.75442,-3.42614 0.5579,-1.15785 1.08854,-2.33096 1.59111,-3.51917 0.50258,-1.18821 0.97708,-2.39113 1.42266,-3.60805 0.44557,-1.21692 0.86261,-2.4478 1.24953,-3.69176 0.38692,-1.24397 0.74414,-2.50149 1.07074,-3.77083 0.32659,-1.26935 0.62216,-2.55063 0.88677,-3.84369 0.2646,-1.29307 0.49823,-2.59783 0.69918,-3.91294 0.20095,-1.31512 0.36924,-2.64049 0.50488,-3.975989 0.13563,-1.335501 0.2383,-2.681188 0.30695,-4.035412 0.0687,-1.354225 0.10335,-2.717356 0.10336,-4.08864 L 134.56313,75.265366 Z"
       style="fill:#ff0000;stroke:#ffffff;stroke-width:2.12129;stroke-linejoin:round"
       id="path9" />
    <path
       d="m 68.356832,11.526104 c -1.371298,-1.2e-5 -2.734401,0.03472 -4.088639,0.103353 -1.354239,0.06864 -2.699381,0.171341 -4.034896,0.306958 -1.335515,0.135618 -2.661374,0.30446 -3.976502,0.505396 -1.315128,0.200936 -2.619346,0.434075 -3.912422,0.698665 -1.293077,0.264591 -2.574849,0.560703 -3.84421,0.887284 -1.269361,0.326582 -2.526332,0.683829 -3.770313,1.070736 -1.243981,0.386908 -2.474827,0.80345 -3.691764,1.24902 -1.216937,0.445569 -2.420336,0.920084 -3.608565,1.422652 -1.18823,0.502568 -2.361308,1.033215 -3.519165,1.591117 -1.157858,0.557902 -2.300326,1.142843 -3.426148,1.754415 -1.125821,0.611572 -2.235324,1.249484 -3.327445,1.913061 -1.092121,0.663578 -2.166819,1.353138 -3.223576,2.067058 -1.056757,0.713919 -2.095327,1.452254 -3.115055,2.214852 -1.019729,0.762597 -2.020849,1.549418 -3.001884,2.359029 -0.981036,0.809611 -1.942349,1.642044 -2.883029,2.497005 -0.940679,0.85496 -1.860346,1.732201 -2.759004,2.630847 -0.898659,0.898646 -1.775874,1.818854 -2.6308475,2.759522 C 8.688394,38.497741 7.85547,39.459077 7.0458455,40.440102 6.236221,41.421126 5.4494278,42.421751 4.6868164,43.441469 3.924205,44.461187 3.1858987,45.499777 2.4719645,46.556524 1.7580303,47.613271 1.0685001,48.687988 0.40490722,49.7801 c -0.66359284,1.092112 -1.30147413,2.201633 -1.91306152,3.327446 -0.6115874,1.125813 -1.196497,2.268297 -1.7544149,3.426147 -0.5579178,1.15785 -1.0885332,2.330943 -1.5911173,3.519165 -0.5025842,1.188223 -0.9770658,2.391634 -1.4226522,3.608565 -0.4455864,1.216932 -0.8626116,2.447789 -1.2495361,3.691765 -0.3869246,1.243976 -0.7441372,2.500956 -1.0707357,3.770312 -0.3265985,1.269357 -0.622676,2.551137 -0.8872844,3.84421 -0.2646084,1.293073 -0.4977111,2.597298 -0.6986651,3.912423 -0.200954,1.315125 -0.36976,2.640988 -0.505396,3.976501 -0.135636,1.335513 -0.237788,2.680659 -0.306441,4.034896 -0.06865,1.354237 -0.103863,2.717342 -0.10387,4.088639 L 2.1500203,104.45066 15.398307,90.980169 c 6e-6,-0.914 0.02297,-1.822269 0.06873,-2.724898 0.04576,-0.902629 0.114233,-1.799609 0.204639,-2.689758 0.09041,-0.890149 0.202988,-1.773408 0.33693,-2.649968 0.133942,-0.876559 0.289235,-1.746248 0.465605,-2.608109 0.176369,-0.861862 0.374008,-1.716064 0.591695,-2.562118 0.217687,-0.846053 0.455756,-1.683888 0.713651,-2.513025 0.257896,-0.829136 0.535512,-1.64972 0.832508,-2.460831 0.296995,-0.811111 0.613277,-1.613046 0.948262,-2.405022 0.334986,-0.791975 0.688534,-1.573861 1.060401,-2.345593 0.371866,-0.771731 0.761799,-1.533203 1.169437,-2.283581 0.407639,-0.750378 0.833073,-1.489521 1.275375,-2.217436 0.442301,-0.727916 0.901838,-1.444362 1.377693,-2.148706 0.475855,-0.704344 0.968096,-1.396696 1.476396,-2.076359 0.508299,-0.679663 1.032362,-1.347039 1.571997,-2.000912 0.539635,-0.653872 1.094637,-1.294356 1.664498,-1.921329 0.569861,-0.626974 1.154403,-1.240199 1.753381,-1.839165 0.598978,-0.598965 1.212696,-1.183533 1.839681,-1.753381 0.626986,-0.569848 1.267446,-1.124877 1.92133,-1.664498 0.653884,-0.539621 1.321238,-1.063711 2.000911,-1.571997 0.679674,-0.508285 1.371489,-1.001072 2.075843,-1.476912 0.704353,-0.475841 1.420781,-0.934891 2.148706,-1.377177 0.727924,-0.442287 1.467566,-0.867751 2.217952,-1.275375 0.750387,-0.407623 1.511843,-0.797587 2.283582,-1.169437 0.771739,-0.371851 1.55361,-0.725431 2.345593,-1.060401 0.791983,-0.334969 1.593904,-0.651284 2.405021,-0.948262 0.811117,-0.296979 1.63169,-0.574629 2.460832,-0.832507 0.829142,-0.257879 1.666967,-0.495982 2.513025,-0.713652 0.846058,-0.21767 1.700252,-0.414827 2.562117,-0.591178 0.861865,-0.176352 1.731547,-0.331681 2.60811,-0.465605 0.876562,-0.133924 1.759816,-0.246543 2.649967,-0.33693 0.890151,-0.09039 1.787128,-0.158897 2.689759,-0.204639 0.90263,-0.04574 1.810897,-0.06874 2.724898,-0.06873 L 51.519617,24.774391 Z"
       style="fill:#ff0000;stroke:none;stroke-width:2.12129;stroke-linejoin:round"
       id="path7" />
    <path
       d="M 68.356832,11.526104 51.519617,24.774391 68.356832,38.022678 c 0.913987,6e-6 1.822798,0.02297 2.725415,0.06873 0.902616,0.04576 1.799105,0.114235 2.689241,0.204639 0.890137,0.0904 1.773937,0.202991 2.650485,0.33693 0.876548,0.133939 1.746259,0.28924 2.608109,0.465605 0.86185,0.176364 1.716075,0.374013 2.562118,0.591695 0.846043,0.217681 1.683898,0.455246 2.513025,0.713135 0.829127,0.257888 1.649213,0.536036 2.460315,0.833024 0.811101,0.296987 1.613053,0.613285 2.405021,0.948262 0.791967,0.334977 1.573869,0.688543 2.345593,1.060401 0.771724,0.371857 1.53321,0.761809 2.283582,1.169437 0.750371,0.407629 1.490043,0.833084 2.217952,1.275375 0.727909,0.44229 1.443851,0.901333 2.148189,1.377176 0.704339,0.475844 1.396701,0.968109 2.076363,1.476396 0.67965,0.508287 1.34704,1.032892 2.00091,1.572514 0.65387,0.539622 1.29436,1.09465 1.92133,1.664498 0.62697,0.569847 1.2402,1.154417 1.83916,1.753381 0.59897,0.598964 1.18354,1.212193 1.75338,1.839164 0.56985,0.626972 1.12488,1.267461 1.6645,1.92133 0.53962,0.65387 1.06423,1.321253 1.57251,2.000912 0.50829,0.679658 1.00056,1.371503 1.4764,2.075842 0.47584,0.704338 0.93489,1.420797 1.37718,2.148706 0.44229,0.727909 0.86774,1.467581 1.27537,2.217952 0.40763,0.750372 0.79758,1.511341 1.16944,2.283065 0.37186,0.771724 0.72542,1.554143 1.0604,2.34611 0.33498,0.791968 0.65127,1.59392 0.94826,2.405021 0.29699,0.811102 0.57462,1.631188 0.83251,2.460315 0.25789,0.829127 0.49597,1.666982 0.71365,2.513025 0.21768,0.846043 0.41533,1.700268 0.5917,2.562118 0.17636,0.86185 0.33166,1.731561 0.4656,2.608109 0.13394,0.876548 0.24653,1.759831 0.33693,2.649968 0.0904,0.890137 0.15836,1.787142 0.20412,2.689758 0.0458,0.902617 0.0692,1.810911 0.0692,2.724898 l 13.24829,-15.714803 13.24777,15.714803 c -10e-6,-1.371284 -0.0347,-2.734414 -0.10336,-4.088639 -0.0686,-1.354225 -0.17132,-2.699395 -0.30695,-4.034896 -0.13564,-1.335501 -0.30393,-2.661388 -0.50488,-3.976501 -0.20095,-1.315114 -0.43458,-2.619361 -0.69918,-3.912423 -0.26461,-1.293062 -0.56018,-2.574864 -0.88677,-3.84421 -0.3266,-1.269346 -0.68382,-2.526346 -1.07074,-3.770312 -0.38692,-1.243966 -0.80396,-2.474843 -1.24953,-3.691765 -0.44558,-1.216922 -0.92008,-2.419834 -1.42266,-3.608048 -0.50257,-1.188214 -1.03321,-2.36184 -1.59111,-3.519682 -0.55791,-1.157842 -1.14284,-2.299825 -1.75442,-3.425631 -0.61158,-1.125806 -1.24948,-2.235339 -1.91306,-3.327445 -0.66358,-1.092106 -1.35314,-2.166834 -2.06706,-3.223576 -0.71392,-1.056742 -1.45225,-2.095342 -2.21485,-3.115055 -0.7626,-1.019714 -1.54942,-2.020863 -2.35903,-3.001884 -0.80961,-0.981022 -1.64204,-1.941847 -2.497,-2.882512 -0.85496,-0.940665 -1.73221,-1.860876 -2.63085,-2.759521 -0.89865,-0.898645 -1.81886,-1.775887 -2.75952,-2.630847 -0.94067,-0.85496 -1.90201,-1.687911 -2.88303,-2.497522 -0.98102,-0.809612 -1.98165,-1.595913 -3.00137,-2.358513 -1.01971,-0.762599 -2.05831,-1.501446 -3.11505,-2.215368 -1.05674,-0.713923 -2.13147,-1.402959 -3.22358,-2.066541 -1.0921,-0.663582 -2.20164,-1.301484 -3.32744,-1.913061 -1.12581,-0.611577 -2.26779,-1.197024 -3.42564,-1.754932 -1.15784,-0.557908 -2.33146,-1.088542 -3.519677,-1.591117 -1.188214,-0.502576 -2.391126,-0.977074 -3.608048,-1.422652 -1.216922,-0.445579 -2.447799,-0.862102 -3.691765,-1.24902 -1.243966,-0.386918 -2.500967,-0.744143 -3.770312,-1.070736 -1.269346,-0.326592 -2.551149,-0.62268 -3.84421,-0.887284 -1.293062,-0.264604 -2.597826,-0.497715 -3.91294,-0.698665 -1.315113,-0.200951 -2.640483,-0.369762 -3.975984,-0.505396 -1.335501,-0.135633 -2.680672,-0.237789 -4.034896,-0.306441 -1.354225,-0.06865 -2.717872,-0.103863 -4.089156,-0.10387 z"
       style="fill:#0000ff;stroke:#ffffff;stroke-width:2.12129;stroke-linejoin:round"
       id="path6" />
    <text
       xml:space="preserve"
       style="font-style:normal;font-variant:normal;font-weight:normal;font-stretch:normal;font-size:9.87778px;font-family:Sans;-inkscape-font-specification:'Sans, Normal';font-variant-ligatures:normal;font-variant-caps:normal;font-variant-numeric:normal;font-variant-east-asian:normal;fill:#ffffff;stroke:none;stroke-width:1;stroke-linejoin:round;stroke-dasharray:none"
       id="text10"
       x="53.172009"
       y="0"
       transform="rotate(-38.135974,78.565368,80.118249)"><textPath
         xlink:href="#path7"
         id="textPath10"
         style="font-style:normal;font-variant:normal;font-weight:normal;font-stretch:normal;font-family:Sans;-inkscape-font-specification:'Sans, Normal';font-variant-ligatures:normal;font-variant-caps:normal;font-variant-numeric:normal;font-variant-east-asian:normal;text-align:start;writing-mode:lr-tb;direction:ltr;baseline-shift:baseline;text-anchor:start;fill:#ffffff;stroke:none;stroke-width:1">Anfordern</textPath></text>
    <text
       xml:space="preserve"
       style="font-style:normal;font-variant:normal;font-weight:normal;font-stretch:normal;font-size:9.87778px;font-family:Sans;-inkscape-font-specification:'Sans, Normal';font-variant-ligatures:normal;font-variant-caps:normal;font-variant-numeric:normal;font-variant-east-asian:normal;fill:#ffffff;stroke:none;stroke-width:1;stroke-linejoin:round;stroke-dasharray:none"
       id="text11"
       x="53.172009"
       y="0"
       transform="rotate(-124.54349,69.808467,86.207369)"><textPath
         xlink:href="#path7"
         id="textPath11"
         style="font-style:normal;font-variant:normal;font-weight:normal;font-stretch:normal;font-family:Sans;-inkscape-font-specification:'Sans, Normal';font-variant-ligatures:normal;font-variant-caps:normal;font-variant-numeric:normal;font-variant-east-asian:normal;text-align:start;writing-mode:lr-tb;direction:ltr;baseline-shift:baseline;text-anchor:start;fill:#ffffff;stroke:none;stroke-width:1">Liefern</textPath></text>
    <text
       xml:space="preserve"
       style="font-style:normal;font-variant:normal;font-weight:normal;font-stretch:normal;font-size:9.87778px;font-family:Sans;-inkscape-font-specification:'Sans, Normal';font-variant-ligatures:normal;font-variant-caps:normal;font-variant-numeric:normal;font-variant-east-asian:normal;fill:#ffffff;stroke:none;stroke-width:1;stroke-linejoin:round;stroke-dasharray:none"
       id="text12"
       x="53.172009"
       y="0"
       transform="rotate(155.21704,65.32647,86.644689)"><textPath
         xlink:href="#path7"
         id="textPath12"
         style="font-style:normal;font-variant:normal;font-weight:normal;font-stretch:normal;font-family:Sans;-inkscape-font-specification:'Sans, Normal';font-variant-ligatures:normal;font-variant-caps:normal;font-variant-numeric:normal;font-variant-east-asian:normal;text-align:start;writing-mode:lr-tb;direction:ltr;baseline-shift:baseline;text-anchor:start;fill:#ffffff;stroke:none;stroke-width:1">Feedback geben</textPath></text>
    <text
       xml:space="preserve"
       style="font-style:normal;font-variant:normal;font-weight:normal;font-stretch:normal;font-size:9.87778px;font-family:Sans;-inkscape-font-specification:'Sans, Normal';font-variant-ligatures:normal;font-variant-caps:normal;font-variant-numeric:normal;font-variant-east-asian:normal;fill:#ffffff;stroke:none;stroke-width:1;stroke-linejoin:round;stroke-dasharray:none"
       id="text13"
       x="53.172009"
       y="0"
       transform="rotate(72.291659,59.228607,88.871763)"><textPath
         xlink:href="#path7"
         id="textPath13"
         style="font-style:normal;font-variant:normal;font-weight:normal;font-stretch:normal;font-family:Sans;-inkscape-font-specification:'Sans, Normal';font-variant-ligatures:normal;font-variant-caps:normal;font-variant-numeric:normal;font-variant-east-asian:normal;text-align:start;writing-mode:lr-tb;direction:ltr;baseline-shift:baseline;text-anchor:start;fill:#ffffff;stroke:none;stroke-width:1">Feedback aufnehmen</textPath></text>
  </g>
</svg>
