<?xml version="1.0" encoding="UTF-8" standalone="no"?>
<!-- Created with Inkscape (http://www.inkscape.org/) -->

<svg
   width="184.1991mm"
   height="113.12178mm"
   viewBox="0 0 184.1991 113.12178"
   version="1.1"
   id="svg5"
   sodipodi:docname="Invest.svg"
   xmlns:inkscape="http://www.inkscape.org/namespaces/inkscape"
   xmlns:sodipodi="http://sodipodi.sourceforge.net/DTD/sodipodi-0.dtd"
   xmlns="http://www.w3.org/2000/svg"
   xmlns:svg="http://www.w3.org/2000/svg">
  <sodipodi:namedview
     id="namedview1"
     pagecolor="#ffffff"
     bordercolor="#000000"
     borderopacity="0.25"
     inkscape:showpageshadow="2"
     inkscape:pageopacity="0.0"
     inkscape:pagecheckerboard="0"
     inkscape:deskcolor="#d1d1d1"
     inkscape:document-units="mm"
     showguides="false" />
  <defs
     id="defs2" />
  <g
     id="g19"
     transform="translate(-15.436783,-25.543144)">
    <path
       id="rect768"
       style="fill:#ffefd5"
       d="m 30.436902,25.543144 c -8.30984,0 -15.000118,6.690278 -15.000118,15.000118 V 123.6648 c 0,8.3098 6.690278,15.00012 15.000118,15.00012 H 184.63576 c 8.3098,0 15.00012,-6.69032 15.00012,-15.00012 V 40.543262 c 0,-8.30984 -6.69032,-15.000118 -15.00012,-15.000118 z M 87.54091,64.263778 h 2.926953 v 6.058545 c 0,1.974195 0.510825,2.689241 1.668115,2.689241 1.157289,0 1.701705,-0.715046 1.701705,-2.689241 v -6.058545 h 2.825151 v 5.718514 c 0,3.778198 -1.42941,5.547981 -4.526856,5.547981 -3.097447,0 -4.595068,-1.769783 -4.595068,-5.547981 z m 14.22756,2.348694 c 1.39543,0 2.38274,0.561309 3.13159,1.122928 l -1.29346,1.736329 c -0.61269,-0.442499 -1.20823,-0.714686 -1.73582,-0.714686 -0.49356,0 -0.74879,0.136088 -0.74879,0.476457 0,0.442499 0.74895,0.612461 1.59991,0.918807 1.021,0.374422 2.17816,1.021103 2.17816,2.552816 0,1.599775 -1.25947,2.82515 -3.64216,2.82515 -1.08923,0 -2.416621,-0.47635 -3.301605,-1.191141 l 1.293461,-1.804025 c 0.782884,0.578653 1.480834,0.851111 2.076354,0.851111 0.6127,0 0.85112,-0.170179 0.85112,-0.510563 0,-0.442484 -0.78305,-0.647153 -1.63401,-0.987537 -0.987142,-0.391426 -2.144058,-1.12315 -2.144058,-2.518709 0,-1.667852 1.361001,-2.756937 3.369308,-2.756937 z m 8.20363,0 c 2.51884,0 3.70985,1.838066 3.70985,4.118611 0,0.510576 -0.0678,1.021032 -0.11886,1.225248 h -4.85035 c 0.27231,1.021138 1.02096,1.361674 1.97404,1.361674 0.57865,0 1.12313,-0.170179 1.73582,-0.510563 l 0.95343,1.735812 c -0.91904,0.646716 -2.14442,0.987019 -3.09749,0.987019 -2.48481,0 -4.39095,-1.633497 -4.39095,-4.458642 0,-2.757069 2.00817,-4.459159 4.08451,-4.459159 z m 10.38179,0 c 0.52759,0 0.81645,0.0679 1.05472,0.170015 l -0.47646,2.518709 c -0.30634,-0.06807 -0.57849,-0.135909 -0.95291,-0.135909 -0.6127,0 -1.36146,0.374193 -1.76992,1.42937 v 4.731495 h -2.92747 v -8.509559 h 2.3828 l 0.20412,1.463477 h 0.0682 c 0.62971,-1.157293 1.58296,-1.667598 2.4169,-1.667598 z m -10.3141,2.212268 c -0.64659,0 -1.19096,0.374805 -1.36115,1.225765 h 2.51871 c 0,-0.64673 -0.27256,-1.225765 -1.15756,-1.225765 z m 11.60757,1.157552 h 4.28862 v 2.042252 h -4.28862 z m -7.33547,14.125752 c 0.95301,0 1.634,0.612524 1.634,1.463477 0,0.850953 -0.68099,1.463993 -1.634,1.463993 -0.95307,0 -1.63401,-0.61304 -1.63401,-1.463993 0,-0.850953 0.68094,-1.463477 1.63401,-1.463477 z m -29.579594,1.225249 c 1.259399,0 2.65512,0.476924 3.676261,1.481046 l -1.463476,1.838131 c -0.748845,-0.527596 -1.395874,-0.799951 -2.212785,-0.799951 -0.714806,0 -1.157036,0.255245 -1.157036,0.748791 0,0.527595 0.629887,0.714434 1.634009,1.105876 l 1.344104,0.527616 c 1.378544,0.544615 2.161625,1.498083 2.161625,3.029789 0,1.872101 -1.565655,3.539836 -4.322733,3.539836 -1.395563,0 -2.995492,-0.510651 -4.186825,-1.582849 l 1.668116,-2.008146 c 0.782872,0.629699 1.770012,1.072286 2.586922,1.072286 0.884988,0 1.259354,-0.289352 1.259354,-0.782898 0,-0.527595 -0.562054,-0.697875 -1.498099,-1.072286 l -1.378211,-0.578776 c -1.191333,-0.476537 -2.229838,-1.480649 -2.229838,-3.080432 0,-1.889109 1.701908,-3.438033 4.118612,-3.438033 z m 5.889046,0.544669 h 2.41639 v 2.212785 h 1.94045 v 2.280481 h -1.94045 v 2.910417 c 0,0.936046 0.476522,1.242301 1.021126,1.242301 0.272308,0 0.544562,-0.06835 0.748792,-0.136426 l 0.442867,2.110466 c -0.442499,0.136153 -1.072617,0.306441 -2.008663,0.306441 -2.212476,0 -3.131075,-1.395816 -3.131075,-3.472139 v -2.96106 H 88.987333 V 88.19255 l 1.293461,-0.101803 z m 9.360152,2.008663 c 2.178446,0 4.220936,1.633483 4.220936,4.458643 0,2.82516 -2.04249,4.459159 -4.220936,4.459159 -2.178439,0 -4.220414,-1.633999 -4.220414,-4.459159 0,-2.82516 2.041975,-4.458643 4.220414,-4.458643 z m 10.824666,0 c 0.52759,0 0.81644,0.0679 1.05471,0.170016 l -0.47645,2.518709 c -0.30634,-0.06807 -0.5785,-0.135909 -0.95292,-0.135909 -0.61269,0 -1.36146,0.374188 -1.76992,1.42937 v 4.731494 h -2.92747 v -8.509558 h 2.3828 l 0.20413,1.463477 h 0.0682 c 0.62971,-1.157297 1.58297,-1.667599 2.41691,-1.667599 z m 10.5854,0 c 2.51878,0 3.71036,1.838051 3.71036,4.118612 0,0.51057 -0.0678,1.021018 -0.11885,1.225248 h -4.85087 c 0.2723,1.021146 1.02149,1.361674 1.97456,1.361674 0.57866,0 1.12312,-0.170179 1.73581,-0.510563 l 0.95291,1.735811 c -0.91904,0.646729 -2.1444,0.98702 -3.09748,0.98702 -2.4848,0 -4.39095,-1.63399 -4.39095,-4.459159 0,-2.757098 2.00816,-4.458643 4.08451,-4.458643 z m 8.44186,0 c 1.39558,0 2.38274,0.5613 3.13159,1.122929 l -1.29346,1.735811 c -0.61269,-0.442494 -1.20873,-0.714685 -1.73633,-0.714685 -0.49356,0 -0.74879,0.136073 -0.74879,0.476457 0,0.4425 0.74894,0.612979 1.5999,0.919324 1.02115,0.374418 2.17868,1.021093 2.17868,2.552816 0,1.599795 -1.25951,2.82515 -3.64215,2.82515 -1.08923,0 -2.41661,-0.476335 -3.30161,-1.191142 l 1.29346,-1.804024 c 0.78289,0.578648 1.48016,0.850594 2.07584,0.850594 0.61269,0 0.85111,-0.170179 0.85111,-0.510563 0,-0.442499 -0.78253,-0.646636 -1.63349,-0.98702 -0.98711,-0.391436 -2.14457,-1.123145 -2.14457,-2.518709 0,-1.667877 1.36156,-2.756938 3.36982,-2.756938 z m -16.98501,0.204122 h 2.92695 v 8.509558 h -2.92695 z m 8.61136,2.008146 c -0.64673,0 -1.19148,0.374294 -1.36167,1.225248 h 2.51922 c 0,-0.646724 -0.27255,-1.225248 -1.15755,-1.225248 z m -21.478276,0.135909 c -0.884989,0 -1.225248,0.817016 -1.225248,2.110466 0,1.293441 0.340259,2.110465 1.225248,2.110465 0.885006,0 1.225766,-0.817024 1.225766,-2.110465 0,-1.29345 -0.34076,-2.110466 -1.225766,-2.110466 z"
       sodipodi:nodetypes="sssssssssccsssccssscsccsscssccsscssssccsccssssccscccccccsssccscccccssssssccssccssccssccssccccccssccsscccccssssssccscccccccssssccsccssssccsscssccsscsscccccsccssssss" />
    <g
       id="g7"
       transform="matrix(1.1903604,0,0,1.1903604,-10.707643,-8.7097916)">
      <text
         xml:space="preserve"
         style="font-weight:600;font-size:7.05556px;line-height:1;font-family:'Source Sans Pro';-inkscape-font-specification:'Source Sans Pro Semi-Bold';text-align:center;letter-spacing:-0.00264583px;text-anchor:middle;fill:#000000;stroke:none;stroke-width:0.264583;stroke-linecap:round;stroke-linejoin:bevel"
         x="34.704796"
         y="47.609829"
         id="text1"><tspan
           sodipodi:role="line"
           id="tspan1"
           style="fill:#000000;stroke:none;stroke-width:0.264583"
           x="34.703472"
           y="47.609829">Als</tspan></text>
      <text
         xml:space="preserve"
         style="font-weight:600;font-size:7.05556px;line-height:1;font-family:'Source Sans Pro';-inkscape-font-specification:'Source Sans Pro Semi-Bold';text-align:center;letter-spacing:-0.00264583px;text-anchor:middle;fill:#ff6600;stroke:none;stroke-width:0.264583;stroke-linecap:round;stroke-linejoin:bevel"
         x="50.761631"
         y="47.609829"
         id="text2"><tspan
           sodipodi:role="line"
           id="tspan2"
           style="fill:#ff6600;stroke:none;stroke-width:0.264583"
           x="50.760307"
           y="47.609829">[Rolle]</tspan></text>
      <text
         xml:space="preserve"
         style="font-weight:600;font-size:7.05556px;line-height:1;font-family:'Source Sans Pro';-inkscape-font-specification:'Source Sans Pro Semi-Bold';text-align:center;letter-spacing:-0.00264583px;text-anchor:middle;fill:#000000;stroke:none;stroke-width:0.264583;stroke-linecap:round;stroke-linejoin:bevel"
         x="78.803665"
         y="47.609829"
         id="text3"><tspan
           sodipodi:role="line"
           id="tspan3"
           style="fill:#000000;stroke:none;stroke-width:0.264583"
           x="78.802345"
           y="47.609829">möchte ich</tspan></text>
      <text
         xml:space="preserve"
         style="font-weight:600;font-size:7.05556px;line-height:1;font-family:'Source Sans Pro';-inkscape-font-specification:'Source Sans Pro Semi-Bold';text-align:center;letter-spacing:-0.00264583px;text-anchor:middle;fill:#008000;stroke:none;stroke-width:0.264583;stroke-linecap:round;stroke-linejoin:bevel"
         x="106.82232"
         y="47.609829"
         id="text4"><tspan
           sodipodi:role="line"
           id="tspan4"
           style="fill:#008000;stroke:none;stroke-width:0.264583"
           x="106.821"
           y="47.609829">[Was?]</tspan></text>
      <text
         xml:space="preserve"
         style="font-weight:600;font-size:7.05556px;line-height:1;font-family:'Source Sans Pro';-inkscape-font-specification:'Source Sans Pro Semi-Bold';text-align:center;letter-spacing:-0.00264583px;text-anchor:middle;fill:#000000;stroke:none;stroke-width:0.264583;stroke-linecap:round;stroke-linejoin:bevel"
         x="128.89359"
         y="47.609829"
         id="text5"><tspan
           sodipodi:role="line"
           id="tspan5"
           style="fill:#000000;stroke:none;stroke-width:0.264583"
           x="129.5965"
           y="47.609829">, damit </tspan></text>
      <text
         xml:space="preserve"
         style="font-weight:600;font-size:7.05556px;line-height:1;font-family:'Source Sans Pro';-inkscape-font-specification:'Source Sans Pro Semi-Bold';text-align:center;letter-spacing:-0.00264583px;text-anchor:middle;fill:#000080;stroke:none;stroke-width:0.264583;stroke-linecap:round;stroke-linejoin:bevel"
         x="153.455"
         y="47.609829"
         id="text6"><tspan
           sodipodi:role="line"
           id="tspan6"
           style="fill:#000080;stroke:none;stroke-width:0.264583"
           x="153.45367"
           y="47.609829">[Wozu?]</tspan></text>
      <text
         xml:space="preserve"
         style="font-weight:600;font-size:7.05556px;line-height:1;font-family:'Source Sans Pro';-inkscape-font-specification:'Source Sans Pro Semi-Bold';text-align:center;letter-spacing:-0.00264583px;text-anchor:middle;fill:#000000;stroke:none;stroke-width:0.264583;stroke-linecap:round;stroke-linejoin:bevel"
         x="167.89523"
         y="47.609829"
         id="text7"><tspan
           sodipodi:role="line"
           id="tspan7"
           style="fill:#000000;stroke:none;stroke-width:0.264583"
           x="167.89391"
           y="47.609829">.</tspan></text>
    </g>
    <g
       id="g18"
       transform="translate(4.0232354,1.5875)">
      <g
         id="g12"
         transform="translate(11.860183,12.7)">
        <text
           xml:space="preserve"
           style="font-weight:600;font-size:7.05556px;line-height:1;font-family:'Source Sans Pro';-inkscape-font-specification:'Source Sans Pro Semi-Bold';text-align:center;letter-spacing:-0.00264583px;text-anchor:middle;fill:#000000;stroke:none;stroke-width:0.264583;stroke-linecap:round;stroke-linejoin:bevel"
           x="37.251228"
           y="106.72008"
           id="text8"><tspan
             sodipodi:role="line"
             id="tspan8"
             style="fill:#000000;stroke-width:0.264583"
             x="37.249905"
             y="106.72008">Wenn ich</tspan></text>
        <text
           xml:space="preserve"
           style="font-weight:600;font-size:7.05556px;line-height:1;font-family:'Source Sans Pro';-inkscape-font-specification:'Source Sans Pro Semi-Bold';text-align:center;letter-spacing:-0.00264583px;text-anchor:middle;fill:#2c9325;fill-opacity:1;stroke:none;stroke-width:0.264583;stroke-linecap:round;stroke-linejoin:bevel"
           x="68.499542"
           y="106.72008"
           id="text9"><tspan
             sodipodi:role="line"
             id="tspan9"
             style="fill:#2c9325;fill-opacity:1;stroke-width:0.264583"
             x="68.498222"
             y="106.72008">[Was tue?]</tspan></text>
        <text
           xml:space="preserve"
           style="font-weight:600;font-size:7.05556px;line-height:1;font-family:'Source Sans Pro';-inkscape-font-specification:'Source Sans Pro Semi-Bold';text-align:center;letter-spacing:-0.00264583px;text-anchor:middle;fill:#000000;stroke:none;stroke-width:0.264583;stroke-linecap:round;stroke-linejoin:bevel"
           x="105.6278"
           y="106.72008"
           id="text10"><tspan
             sodipodi:role="line"
             id="tspan10"
             style="fill:#000000;stroke-width:0.264583"
             x="105.62647"
             y="106.72008">, führt das zu</tspan></text>
        <text
           xml:space="preserve"
           style="font-weight:600;font-size:7.05556px;line-height:1;font-family:'Source Sans Pro';-inkscape-font-specification:'Source Sans Pro Semi-Bold';text-align:center;letter-spacing:-0.00264583px;text-anchor:middle;fill:#000080;stroke:none;stroke-width:0.264583;stroke-linecap:round;stroke-linejoin:bevel"
           x="141.54823"
           y="106.72008"
           id="text11"><tspan
             sodipodi:role="line"
             id="tspan11"
             style="fill:#000080;stroke-width:0.264583"
             x="141.54691"
             y="106.72008">[Ergebnis]</tspan></text>
        <text
           xml:space="preserve"
           style="font-weight:600;font-size:7.05556px;line-height:1;font-family:'Source Sans Pro';-inkscape-font-specification:'Source Sans Pro Semi-Bold';text-align:center;letter-spacing:-0.00264583px;text-anchor:middle;fill:#000080;fill-opacity:1;stroke:none;stroke-width:0.264583;stroke-linecap:round;stroke-linejoin:bevel"
           x="159.18279"
           y="106.72008"
           id="text12"><tspan
             sodipodi:role="line"
             id="tspan12"
             style="stroke-width:0.264583"
             x="159.18146"
             y="106.72008">.</tspan></text>
      </g>
      <g
         id="g17"
         transform="translate(-2.1166667,8.9958335)">
        <text
           xml:space="preserve"
           style="font-weight:600;font-size:7.05556px;line-height:1;font-family:'Source Sans Pro';-inkscape-font-specification:'Source Sans Pro Semi-Bold';text-align:center;letter-spacing:-0.00264583px;text-anchor:middle;fill:#000000;stroke:none;stroke-width:0.264583;stroke-linecap:round;stroke-linejoin:bevel"
           x="34.076225"
           y="119.30006"
           id="text13"><tspan
             sodipodi:role="line"
             id="tspan13"
             style="fill:#000000;stroke-width:0.264583"
             x="34.074902"
             y="119.30006">Wenn ich</tspan></text>
        <text
           xml:space="preserve"
           style="font-weight:600;font-size:7.05556px;line-height:1;font-family:'Source Sans Pro';-inkscape-font-specification:'Source Sans Pro Semi-Bold';text-align:center;letter-spacing:-0.00264583px;text-anchor:middle;fill:#2c9325;fill-opacity:1;stroke:none;stroke-width:0.264583;stroke-linecap:round;stroke-linejoin:bevel"
           x="64.188255"
           y="119.30006"
           id="text14"><tspan
             sodipodi:role="line"
             id="tspan14"
             style="fill:#2c9325;fill-opacity:1;stroke-width:0.264583"
             x="64.186935"
             y="119.30006">[Was tue?]</tspan></text>
        <text
           xml:space="preserve"
           style="font-weight:600;font-size:7.05556px;line-height:1;font-family:'Source Sans Pro';-inkscape-font-specification:'Source Sans Pro Semi-Bold';text-align:center;letter-spacing:-0.00264583px;text-anchor:middle;fill:#000000;stroke:none;stroke-width:0.264583;stroke-linecap:round;stroke-linejoin:bevel"
           x="106.38251"
           y="119.30006"
           id="text15"><tspan
             sodipodi:role="line"
             id="tspan15"
             style="fill:#000000;stroke-width:0.264583"
             x="106.38119"
             y="119.30006">, soll das nicht zu</tspan></text>
        <text
           xml:space="preserve"
           style="font-weight:600;font-size:7.05556px;line-height:1;font-family:'Source Sans Pro';-inkscape-font-specification:'Source Sans Pro Semi-Bold';text-align:center;letter-spacing:-0.00264583px;text-anchor:middle;fill:#000080;stroke:none;stroke-width:0.264583;stroke-linecap:round;stroke-linejoin:bevel"
           x="149.67963"
           y="119.30006"
           id="text16"><tspan
             sodipodi:role="line"
             id="tspan16"
             style="fill:#000080;stroke-width:0.264583"
             x="149.6783"
             y="119.30006">[Ergebnis?]</tspan></text>
        <text
           xml:space="preserve"
           style="font-weight:600;font-size:7.05556px;line-height:1;font-family:'Source Sans Pro';-inkscape-font-specification:'Source Sans Pro Semi-Bold';text-align:center;letter-spacing:-0.00264583px;text-anchor:middle;fill:#000000;fill-opacity:1;stroke:none;stroke-width:0.264583;stroke-linecap:round;stroke-linejoin:bevel"
           x="179.52222"
           y="119.30006"
           id="text17"><tspan
             sodipodi:role="line"
             id="tspan17"
             style="fill:#000000;stroke-width:0.264583"
             x="179.52089"
             y="119.30006"> führen.</tspan></text>
      </g>
      <text
         xml:space="preserve"
         style="font-weight:600;font-size:7.05556px;line-height:1;font-family:'Source Sans Pro';-inkscape-font-specification:'Source Sans Pro Semi-Bold';text-align:center;letter-spacing:-0.00264583px;text-anchor:middle;fill:#000000;fill-opacity:1;stroke:none;stroke-width:0.264583;stroke-linecap:round;stroke-linejoin:bevel"
         x="103.74946"
         y="109.40605"
         id="text18"><tspan
           sodipodi:role="line"
           id="tspan18"
           style="stroke-width:0.264583"
           x="103.74814"
           y="109.40605">Validierungs-Statement:</tspan></text>
    </g>
  </g>
</svg>
